# 3ds Max Wavefront OBJ Exporter v0.97b - (c)2007 guruware
# File Created: 13.03.2020 12:52:18

mtllib 2DCover002.mtl

#
# object shape0
#

v  0.0100 0.0015 0.0015
v  0.0100 -0.0015 0.0015
v  0.0100 -0.0015 -0.0015
v  0.0100 0.0015 -0.0015
v  0.0150 0.0150 -0.0150
v  0.0150 -0.0150 -0.0150
v  0.0150 0.0150 0.0150
v  0.0150 -0.0150 0.0150
v  0.0000 0.0000 -0.0000
# 9 vertices

vn 0.9820 -0.1337 -0.1337
vn 0.9820 0.1337 -0.1337
vn 0.9820 0.1337 0.1337
vn 0.9820 -0.1337 0.1337
vn 0.3126 0.6717 -0.6717
vn 0.3126 -0.6717 -0.6717
vn 0.3126 0.6717 0.6717
vn 0.3126 -0.6717 0.6717
vn -1.0000 0.0000 -0.0000
# 9 vertex normals

o shape0
g shape0
usemtl wire_255255000
s 1
f 1//1 2//2 3//3 4//4 
s 2
f 5//5 4//4 3//3 6//6 
s 4
f 7//7 1//1 4//4 5//5 
s 8
f 2//2 8//8 6//6 3//3 
s 16
f 1//1 7//7 8//8 2//2 
s 32
f 9//9 7//7 5//5 
s 64
f 9//9 5//5 6//6 
s 128
f 9//9 6//6 8//8 
s 256
f 9//9 8//8 7//7 
# 5 polygons - 4 triangles

#
# object shape0__Dot2D_rep
#

v  2419.9951 4110.4492 -449.9332
v  4793.2568 0.1972 -449.9326
v  2396.5024 4151.1357 -500.0006
v  4793.2563 0.1972 -500.0000
v  2396.7705 -4151.0000 -500.0000
v  2396.7708 -4151.0005 -449.9326
v  -2345.2932 -4151.0000 -449.9323
v  -2396.9451 -4151.0000 -499.9997
v  2396.5024 4151.1357 549.9994
v  4793.2563 0.1972 549.9997
v  2419.9949 4110.4492 499.5453
v  4793.2563 0.1972 499.5456
v  2396.7705 -4151.0000 499.5456
v  2396.7705 -4151.0000 549.9997
v  -2345.2932 -4151.0000 499.5456
v  -2396.9451 -4151.0000 549.9997
# 16 vertices

vn 0.8682 0.4961 -0.0000
vn 0.8690 0.4947 -0.0000
vn 0.8681 0.4965 -0.0000
vn 0.8742 -0.4856 -0.0000
vn 0.8703 -0.4925 -0.0000
vn 0.8682 -0.4961 -0.0000
vn 0.0000 -1.0000 -0.0000
vn 0.8697 -0.4936 -0.0000
# 8 vertex normals

vt 0.2720 0.4967 0.0000
vt 2.9520 0.4967 0.0000
vt 0.2454 0.5250 0.0000
vt 2.9520 0.5250 0.0000
vt 5.9478 0.5250 0.0000
vt 5.9478 0.4967 0.0000
vt 8.6252 0.4967 0.0000
vt 8.6543 0.5250 0.0000
vt 0.2460 -0.0691 0.0000
vt 2.9520 -0.0691 0.0000
vt 0.2726 -0.0406 0.0000
vt 2.9520 -0.0406 0.0000
vt 5.9478 -0.0406 0.0000
vt 5.9478 -0.0691 0.0000
vt 8.6246 -0.0406 0.0000
vt 8.6537 -0.0691 0.0000
# 16 texture coords

o shape0__Dot2D_rep
g shape0__Dot2D_rep
usemtl Dot2D_rep
s 1
f 10/1/10 11/2/11 12/3/10 
f 11/2/11 13/4/12 12/3/10 
f 14/5/13 13/4/14 15/6/15 
f 13/4/14 11/2/14 15/6/15 
f 16/7/16 17/8/16 15/6/16 
f 17/8/16 14/5/16 15/6/16 
f 18/9/10 19/10/12 20/11/10 
f 19/10/12 21/12/11 20/11/10 
f 22/13/15 21/12/17 23/14/13 
f 21/12/17 19/10/17 23/14/13 
f 11/2/11 10/1/10 21/12/11 
f 10/1/10 20/11/10 21/12/11 
f 15/6/15 11/2/14 22/13/15 
f 11/2/14 21/12/17 22/13/15 
f 12/3/10 18/9/10 20/11/10 
f 24/15/16 16/7/16 22/13/16 
f 16/7/16 15/6/16 22/13/16 
f 25/16/16 17/8/16 24/15/16 
f 23/14/16 25/16/16 22/13/16 
f 25/16/16 24/15/16 22/13/16 
f 10/1/10 12/3/10 20/11/10 
f 17/8/16 16/7/16 24/15/16 
# 0 polygons - 22 triangles

