# 3ds Max Wavefront OBJ Exporter v0.97b - (c)2007 guruware
# File Created: 13.03.2020 12:51:11

mtllib 2DCover000.mtl

#
# object shape0
#

v  0.0100 0.0015 0.0015
v  0.0100 -0.0015 0.0015
v  0.0100 -0.0015 -0.0015
v  0.0100 0.0015 -0.0015
v  0.0150 0.0150 -0.0150
v  0.0150 -0.0150 -0.0150
v  0.0150 0.0150 0.0150
v  0.0150 -0.0150 0.0150
v  0.0000 0.0000 -0.0000
# 9 vertices

vn 0.9820 -0.1337 -0.1337
vn 0.9820 0.1337 -0.1337
vn 0.9820 0.1337 0.1337
vn 0.9820 -0.1337 0.1337
vn 0.3126 0.6717 -0.6717
vn 0.3126 -0.6717 -0.6717
vn 0.3126 0.6717 0.6717
vn 0.3126 -0.6717 0.6717
vn -1.0000 0.0000 -0.0000
# 9 vertex normals

o shape0
g shape0
usemtl wire_255255000
s 1
f 1//1 2//2 3//3 4//4 
s 2
f 5//5 4//4 3//3 6//6 
s 4
f 7//7 1//1 4//4 5//5 
s 8
f 2//2 8//8 6//6 3//3 
s 16
f 1//1 7//7 8//8 2//2 
s 32
f 9//9 7//7 5//5 
s 64
f 9//9 5//5 6//6 
s 128
f 9//9 6//6 8//8 
s 256
f 9//9 8//8 7//7 
# 5 polygons - 4 triangles

#
# object shape0__Dot2D_rep
#

v  2.0323 -1600.0000 500.0000
v  2.0323 1500.0000 500.0000
v  2.0323 -1650.0000 550.0000
v  2.0323 1550.0000 550.0000
v  2.0323 -1600.0000 -500.0000
v  2.0323 500.0000 -200.0000
v  2.0323 500.0000 -500.0000
v  2.0323 -1650.0000 -550.0000
v  2.0323 550.0000 -550.0000
v  2.0323 550.0000 -250.0000
v  2.0323 1500.0000 -200.0000
v  2.0323 1550.0000 -250.0000
v  2.0323 1550.0000 50.0000
v  2.0323 1550.0000 -50.0000
v  2.0323 1650.0000 -50.0000
v  2.0323 1650.0000 50.0000
# 16 vertices

vn 1.0000 0.0000 -0.0000
# 1 vertex normals

vt 2.0313 0.0942 0.0000
vt 0.0946 0.0942 0.0000
vt 2.0625 0.0630 0.0000
vt 0.0634 0.0630 0.0000
vt 2.0313 0.7192 0.0000
vt 0.7197 0.5317 0.0000
vt 0.7197 0.7192 0.0000
vt 2.0625 0.7504 0.0000
vt 0.6885 0.7504 0.0000
vt 0.6885 0.5630 0.0000
vt 0.0946 0.5317 0.0000
vt 0.0634 0.5627 0.0000
vt 0.0634 0.3755 0.0000
vt 0.0634 0.4380 0.0000
vt 0.0009 0.4380 0.0000
vt 0.0009 0.3755 0.0000
# 16 texture coords

o shape0__Dot2D_rep
g shape0__Dot2D_rep
usemtl Dot2D_rep
s 1
f 10/1/10 11/2/10 12/3/10 
f 11/2/10 13/4/10 12/3/10 
f 10/1/10 14/5/10 15/6/10 
f 14/5/10 16/7/10 15/6/10 
f 11/2/10 10/1/10 15/6/10 
f 12/3/10 17/8/10 10/1/10 
f 17/8/10 14/5/10 10/1/10 
f 17/8/10 18/9/10 14/5/10 
f 18/9/10 16/7/10 14/5/10 
f 16/7/10 18/9/10 19/10/10 
f 15/6/10 16/7/10 19/10/10 
f 15/6/10 19/10/10 20/11/10 
f 19/10/10 21/12/10 20/11/10 
f 22/13/10 13/4/10 11/2/10 
f 20/11/10 22/13/10 11/2/10 
f 20/11/10 11/2/10 15/6/10 
f 21/12/10 23/14/10 20/11/10 
f 23/14/10 22/13/10 20/11/10 
f 23/14/10 24/15/10 22/13/10 
f 24/15/10 25/16/10 22/13/10 
# 0 polygons - 20 triangles

