# 3ds Max Wavefront OBJ Exporter v0.97b - (c)2007 guruware
# File Created: 13.03.2020 13:00:07

mtllib GKBarrior.mtl

#
# object SandWorldHomeGKBarrior
#

v  0.0100 0.0015 0.0015
v  0.0100 -0.0015 0.0015
v  0.0100 -0.0015 -0.0015
v  0.0100 0.0015 -0.0015
v  0.0150 0.0150 -0.0150
v  0.0150 -0.0150 -0.0150
v  0.0150 0.0150 0.0150
v  0.0150 -0.0150 0.0150
v  0.0000 0.0000 -0.0000
# 9 vertices

vn 0.9820 -0.1337 -0.1337
vn 0.9820 0.1337 -0.1337
vn 0.9820 0.1337 0.1337
vn 0.9820 -0.1337 0.1337
vn 0.3126 0.6717 -0.6717
vn 0.3126 -0.6717 -0.6717
vn 0.3126 0.6717 0.6717
vn 0.3126 -0.6717 0.6717
vn -1.0000 0.0000 -0.0000
# 9 vertex normals

o SandWorldHomeGKBarrior
g SandWorldHomeGKBarrior
usemtl wire_255255000
s 1
f 1//1 2//2 3//3 4//4 
s 2
f 5//5 4//4 3//3 6//6 
s 4
f 7//7 1//1 4//4 5//5 
s 8
f 2//2 8//8 6//6 3//3 
s 16
f 1//1 7//7 8//8 2//2 
s 32
f 9//9 7//7 5//5 
s 64
f 9//9 5//5 6//6 
s 128
f 9//9 6//6 8//8 
s 256
f 9//9 8//8 7//7 
# 5 polygons - 4 triangles

#
# object pCylinder482__WallEffect00
#

v  946.7733 1639.8516 -350.0000
v  -946.7733 1639.8516 139.8323
v  -946.7733 1639.8516 -350.0000
v  946.7733 1639.8516 139.8323
v  1893.5398 -0.0000 -350.0000
v  1893.5398 -0.0000 139.8323
v  946.7699 -1639.8535 -350.0000
v  946.7699 -1639.8535 139.8323
v  -946.7699 -1639.8535 -350.0000
v  -946.7699 -1639.8535 139.8323
v  -1893.5398 0.0000 -350.0000
v  -1893.5398 0.0000 139.8323
v  1893.5398 -0.0000 41.7911
v  946.7733 1639.8516 41.7911
v  946.7699 -1639.8535 41.7911
v  -946.7699 -1639.8535 41.7911
v  -1893.5398 0.0000 41.7911
v  -946.7733 1639.8516 41.7911
v  1923.8506 -0.0000 84.3365
v  961.9254 -1666.1035 84.3365
v  1893.5398 -0.0000 84.3365
v  946.7699 -1639.8535 84.3365
v  1865.3940 -0.0000 84.3365
v  -961.9254 -1666.1035 84.3365
v  932.6970 -1615.4785 84.3365
v  -946.7699 -1639.8535 84.3365
v  -1923.8506 0.0000 84.3365
v  -932.6970 -1615.4785 84.3365
v  -1893.5398 0.0000 84.3365
v  -961.9149 1666.1016 84.3365
v  -1865.3940 0.0000 84.3365
v  -946.7733 1639.8516 84.3365
v  961.9149 1666.1016 84.3365
v  -932.7133 1615.4766 84.3365
v  946.7733 1639.8516 84.3365
v  932.7133 1615.4766 84.3365
v  1923.8506 -0.0000 64.7783
v  961.9254 -1666.1035 64.7783
v  1893.5398 -0.0000 64.7783
v  946.7699 -1639.8535 64.7783
v  1865.3940 -0.0000 64.7783
v  -961.9254 -1666.1035 64.7783
v  932.6970 -1615.4785 64.7783
v  -946.7699 -1639.8535 64.7783
v  -1923.8506 0.0000 64.7783
v  -932.6970 -1615.4785 64.7783
v  -1893.5398 0.0000 64.7783
v  -961.9149 1666.1016 64.7783
v  -1865.3940 0.0000 64.7783
v  -946.7733 1639.8516 64.7783
v  961.9149 1666.1016 64.7783
v  -932.7133 1615.4766 64.7783
v  946.7733 1639.8516 64.7783
v  932.7133 1615.4766 64.7783
v  -300.0000 1647.9999 41.7911
v  -300.0000 1647.9999 139.8323
v  300.0000 1647.9999 139.8323
v  300.0000 1647.9999 41.7911
# 58 vertices

vn -0.5001 -0.8660 -0.0000
vn 0.5001 -0.8660 -0.0000
vn -1.0000 0.0000 -0.0000
vn -0.5001 0.8660 -0.0000
vn 0.5001 0.8660 -0.0000
vn 1.0000 0.0000 -0.0000
vn 0.7192 0.6948 -0.0000
vn -0.7192 0.6948 -0.0000
vn 0.0000 0.0000 -1.0000
vn -0.0061 1.0000 -0.0000
vn 0.0061 1.0000 -0.0000
# 11 vertex normals

vt 8.3283 0.7137 0.0000
vt 10.0000 0.0000 0.0000
vt 10.0000 0.7137 0.0000
vt 8.3283 0.0000 0.0000
vt 6.6627 0.7137 0.0000
vt 6.6627 0.0000 0.0000
vt 4.9970 0.7137 0.0000
vt 4.9970 0.0000 0.0000
vt 3.3313 0.7137 0.0000
vt 3.3313 0.0000 0.0000
vt 1.6657 0.7137 0.0000
vt 1.6657 0.0000 0.0000
vt 0.0000 0.7137 0.0000
vt 0.0000 0.0000 0.0000
vt 6.6627 0.1914 0.0000
vt 8.3283 0.1914 0.0000
vt 4.9970 0.1914 0.0000
vt 3.3313 0.1914 0.0000
vt 1.6657 0.1914 0.0000
vt 0.0000 0.1914 0.0000
vt 10.0000 0.1658 0.0000
vt 8.3581 0.1658 0.0000
vt 8.3581 0.0000 0.0000
vt 6.7164 0.1658 0.0000
vt 6.7164 0.0000 0.0000
vt 5.0854 0.1658 0.0000
vt 6.7165 0.1658 0.0000
vt 5.0848 0.0000 0.0000
vt 3.3122 0.1658 0.0000
vt 5.0844 0.1658 0.0000
vt 3.3197 0.0000 0.0000
vt 1.7622 0.1658 0.0000
vt 3.3265 0.1658 0.0000
vt 1.7548 0.0000 0.0000
vt 0.0000 0.1658 0.0000
vt 1.7481 0.1658 0.0000
vt 9.4299 0.1914 0.0000
vt 9.4302 0.0000 0.0000
vt 10.0000 0.1914 0.0000
vt 8.8981 0.0000 0.0000
vt 8.8985 0.1914 0.0000
# 41 texture coords

o pCylinder482__WallEffect00
g pCylinder482__WallEffect00
usemtl WallEffect00
s 1
f 10/1/10 11/2/11 12/3/11 
f 13/4/10 11/2/11 10/1/10 
f 14/5/12 13/4/10 10/1/10 
f 14/5/12 15/6/12 13/4/10 
f 14/5/12 16/7/13 15/6/12 
f 15/6/12 16/7/13 17/8/13 
f 16/7/13 18/9/14 17/8/13 
f 17/8/13 18/9/14 19/10/14 
f 18/9/14 20/11/15 19/10/14 
f 19/10/14 20/11/15 21/12/15 
f 20/11/15 12/13/11 21/12/15 
f 21/12/15 12/13/11 11/14/11 
f 22/15/15 23/16/16 13/4/16 
f 22/15/15 13/4/16 15/6/15 
f 22/15/15 15/6/15 24/17/11 
f 15/6/15 17/8/11 24/17/11 
f 24/17/11 17/8/11 25/18/10 
f 17/8/11 19/10/10 25/18/10 
f 25/18/10 19/10/10 26/19/12 
f 19/10/10 21/12/12 26/19/12 
f 26/19/12 21/12/12 27/20/17 
f 21/12/12 11/14/17 27/20/17 
f 28/21/18 29/22/18 30/2/18 
f 30/2/18 29/22/18 31/23/18 
f 30/2/18 31/23/18 32/21/18 
f 29/22/18 33/24/18 31/23/18 
f 32/21/18 31/23/18 34/22/18 
f 31/23/18 33/24/18 35/25/18 
f 31/23/18 35/25/18 34/22/18 
f 33/24/18 36/26/18 35/25/18 
f 34/22/18 35/25/18 37/27/18 
f 35/25/18 36/26/18 38/28/18 
f 35/25/18 38/28/18 37/27/18 
f 36/26/18 39/29/18 38/28/18 
f 37/27/18 38/28/18 40/30/18 
f 38/28/18 39/29/18 41/31/18 
f 38/28/18 41/31/18 40/30/18 
f 39/29/18 42/32/18 41/31/18 
f 40/30/18 41/31/18 43/33/18 
f 41/31/18 42/32/18 44/34/18 
f 41/31/18 44/34/18 43/33/18 
f 42/32/18 28/35/18 44/34/18 
f 43/33/18 44/34/18 45/36/18 
f 44/34/18 28/35/18 30/14/18 
f 44/34/18 30/14/18 45/36/18 
f 45/36/18 30/14/18 32/35/18 
f 46/21/18 47/22/18 48/2/18 
f 47/22/18 49/23/18 48/2/18 
f 48/2/18 49/23/18 50/21/18 
f 47/22/18 51/24/18 49/23/18 
f 49/23/18 52/22/18 50/21/18 
f 51/24/18 53/25/18 49/23/18 
f 49/23/18 53/25/18 52/22/18 
f 51/24/18 54/26/18 53/25/18 
f 53/25/18 55/27/18 52/22/18 
f 53/25/18 54/26/18 56/28/18 
f 53/25/18 56/28/18 55/27/18 
f 54/26/18 57/29/18 56/28/18 
f 55/27/18 56/28/18 58/30/18 
f 56/28/18 57/29/18 59/31/18 
f 56/28/18 59/31/18 58/30/18 
f 57/29/18 60/32/18 59/31/18 
f 58/30/18 59/31/18 61/33/18 
f 59/31/18 60/32/18 62/34/18 
f 59/31/18 62/34/18 61/33/18 
f 60/32/18 46/35/18 62/34/18 
f 61/33/18 62/34/18 63/36/18 
f 62/34/18 46/35/18 48/14/18 
f 62/34/18 48/14/18 63/36/18 
f 63/36/18 48/14/18 50/35/18 
f 64/37/19 11/2/17 65/38/19 
f 64/37/19 27/39/17 11/2/17 
f 66/40/20 67/41/20 64/37/19 
f 66/40/20 64/37/19 65/38/19 
f 13/4/16 23/16/16 66/40/20 
f 23/16/16 67/41/20 66/40/20 
# 0 polygons - 76 triangles

#
# object pCylinder485__WallEffect01
#

v  -1837.2483 0.0000 139.8323
v  -1879.4668 0.0000 139.8323
v  -918.6531 1591.1016 139.8323
v  -939.7334 -1627.6660 139.8323
v  -918.6240 -1591.1035 139.8323
v  -939.7433 1627.6641 139.8323
v  918.6531 1591.1016 139.8323
v  939.7334 -1627.6660 139.8323
v  918.6240 -1591.1035 139.8323
v  939.7433 1627.6641 139.8323
v  1837.2483 -0.0000 139.8323
v  1879.4668 -0.0000 139.8323
v  946.7733 1639.8516 139.8323
v  1893.5398 -0.0000 139.8323
v  946.7699 -1639.8535 139.8323
v  -946.7699 -1639.8535 139.8323
v  -1893.5398 0.0000 139.8323
v  -946.7733 1639.8516 139.8323
v  -1908.6951 0.0000 139.8323
v  -954.3441 1652.9766 139.8323
v  954.3441 1652.9766 139.8323
v  1908.6951 -0.0000 139.8323
v  -977.0566 1692.3516 139.8323
v  -1954.1614 0.0000 139.8323
v  977.0566 1692.3516 139.8323
v  -977.0807 -1692.3535 139.8323
v  1954.1614 -0.0000 139.8323
v  -954.3476 -1652.9785 139.8323
v  977.0807 -1692.3535 139.8323
v  954.3476 -1652.9785 139.8323
# 30 vertices

vn 0.0000 0.0000 -1.0000
# 1 vertex normals

vt 0.0000 0.0000 0.0000
# 1 texture coords

o pCylinder485__WallEffect01
g pCylinder485__WallEffect01
usemtl WallEffect01
s 1
f 68/42/21 69/42/21 70/42/21 
f 68/42/21 71/42/21 69/42/21 
f 68/42/21 72/42/21 71/42/21 
f 70/42/21 69/42/21 73/42/21 
f 70/42/21 73/42/21 74/42/21 
f 72/42/21 75/42/21 71/42/21 
f 72/42/21 76/42/21 75/42/21 
f 74/42/21 73/42/21 77/42/21 
f 74/42/21 77/42/21 78/42/21 
f 76/42/21 78/42/21 79/42/21 
f 77/42/21 79/42/21 78/42/21 
f 76/42/21 79/42/21 75/42/21 
f 73/42/21 80/42/21 77/42/21 
f 77/42/21 81/42/21 79/42/21 
f 77/42/21 80/42/21 81/42/21 
f 75/42/21 79/42/21 82/42/21 
f 79/42/21 81/42/21 82/42/21 
f 71/42/21 75/42/21 83/42/21 
f 75/42/21 82/42/21 83/42/21 
f 71/42/21 83/42/21 84/42/21 
f 71/42/21 84/42/21 69/42/21 
f 73/42/21 69/42/21 85/42/21 
f 69/42/21 84/42/21 85/42/21 
f 73/42/21 85/42/21 80/42/21 
f 83/42/21 86/42/21 84/42/21 
f 84/42/21 87/42/21 85/42/21 
f 84/42/21 86/42/21 87/42/21 
f 85/42/21 88/42/21 80/42/21 
f 85/42/21 87/42/21 88/42/21 
f 80/42/21 88/42/21 89/42/21 
f 80/42/21 89/42/21 81/42/21 
f 87/42/21 90/42/21 88/42/21 
f 87/42/21 91/42/21 90/42/21 
f 86/42/21 91/42/21 87/42/21 
f 88/42/21 90/42/21 92/42/21 
f 88/42/21 92/42/21 89/42/21 
f 86/42/21 93/42/21 91/42/21 
f 89/42/21 92/42/21 94/42/21 
f 95/42/21 93/42/21 86/42/21 
f 83/42/21 95/42/21 86/42/21 
f 83/42/21 82/42/21 95/42/21 
f 95/42/21 96/42/21 93/42/21 
f 82/42/21 97/42/21 95/42/21 
f 95/42/21 97/42/21 96/42/21 
f 97/42/21 94/42/21 96/42/21 
f 89/42/21 94/42/21 97/42/21 
f 82/42/21 81/42/21 97/42/21 
f 81/42/21 89/42/21 97/42/21 
# 0 polygons - 48 triangles

