# 3ds Max Wavefront OBJ Exporter v0.97b - (c)2007 guruware
# File Created: 13.03.2020 13:12:39

mtllib IceFountain.mtl

#
# object SandWorldHomeIceFountain
#

v  0.0100 0.0015 0.0015
v  0.0100 -0.0015 0.0015
v  0.0100 -0.0015 -0.0015
v  0.0100 0.0015 -0.0015
v  0.0150 0.0150 -0.0150
v  0.0150 -0.0150 -0.0150
v  0.0150 0.0150 0.0150
v  0.0150 -0.0150 0.0150
v  0.0000 0.0000 -0.0000
# 9 vertices

vn 0.9820 -0.1337 -0.1337
vn 0.9820 0.1337 -0.1337
vn 0.9820 0.1337 0.1337
vn 0.9820 -0.1337 0.1337
vn 0.3126 0.6717 -0.6717
vn 0.3126 -0.6717 -0.6717
vn 0.3126 0.6717 0.6717
vn 0.3126 -0.6717 0.6717
vn -1.0000 0.0000 -0.0000
# 9 vertex normals

o SandWorldHomeIceFountain
g SandWorldHomeIceFountain
usemtl wire_255255000
s 1
f 1//1 2//2 3//3 4//4 
s 2
f 5//5 4//4 3//3 6//6 
s 4
f 7//7 1//1 4//4 5//5 
s 8
f 2//2 8//8 6//6 3//3 
s 16
f 1//1 7//7 8//8 2//2 
s 32
f 9//9 7//7 5//5 
s 64
f 9//9 5//5 6//6 
s 128
f 9//9 6//6 8//8 
s 256
f 9//9 8//8 7//7 
# 5 polygons - 4 triangles

#
# object pCylinder756__PillarIceBig01
#

v  -0.0000 349.1370 -0.0000
v  -0.0000 0.0000 -0.0000
v  -90.3633 337.2404 -0.0000
v  90.3633 337.2404 -0.0000
v  -174.5686 302.3616 -0.0000
v  174.5685 302.3616 -0.0000
v  -246.8772 246.8772 -0.0000
v  246.8771 246.8772 -0.0000
v  -302.3616 174.5685 -0.0000
v  302.3615 174.5685 -0.0000
v  -337.2405 90.3633 -0.0000
v  337.2404 90.3633 -0.0000
v  -349.1370 0.0000 -0.0000
v  349.1370 0.0000 -0.0000
v  -337.2405 -90.3633 -0.0000
v  337.2404 -90.3633 -0.0000
v  -302.3616 -174.5685 -0.0000
v  302.3615 -174.5685 -0.0000
v  -246.8772 -246.8772 -0.0000
v  246.8771 -246.8771 -0.0000
v  -174.5686 -302.3615 -0.0000
v  174.5685 -302.3615 -0.0000
v  -90.3633 -337.2404 -0.0000
v  90.3633 -337.2404 -0.0000
v  -0.0000 -349.1370 -0.0000
# 25 vertices

vn 0.0000 0.0000 -1.0000
# 1 vertex normals

vt 0.4980 0.2824 0.0000
vt 0.4980 0.4980 0.0000
vt 0.4431 0.2902 0.0000
vt 0.5569 0.2902 0.0000
vt 0.3922 0.3098 0.0000
vt 0.6078 0.3098 0.0000
vt 0.3451 0.3451 0.0000
vt 0.6549 0.3451 0.0000
vt 0.3098 0.3922 0.0000
vt 0.6902 0.3922 0.0000
vt 0.2902 0.4431 0.0000
vt 0.7098 0.4431 0.0000
vt 0.2824 0.4980 0.0000
vt 0.7176 0.4980 0.0000
vt 0.2902 0.5569 0.0000
vt 0.7098 0.5569 0.0000
vt 0.3098 0.6078 0.0000
vt 0.6902 0.6078 0.0000
vt 0.3451 0.6549 0.0000
vt 0.6549 0.6549 0.0000
vt 0.3922 0.6902 0.0000
vt 0.6078 0.6902 0.0000
vt 0.4431 0.7098 0.0000
vt 0.5569 0.7098 0.0000
vt 0.4980 0.7176 0.0000
# 25 texture coords

o pCylinder756__PillarIceBig01
g pCylinder756__PillarIceBig01
usemtl PillarIceBig01
s 1
f 10/1/10 11/2/10 12/3/10 
f 10/1/10 13/4/10 11/2/10 
f 12/3/10 11/2/10 14/5/10 
f 13/4/10 15/6/10 11/2/10 
f 14/5/10 11/2/10 16/7/10 
f 15/6/10 17/8/10 11/2/10 
f 16/7/10 11/2/10 18/9/10 
f 17/8/10 19/10/10 11/2/10 
f 18/9/10 11/2/10 20/11/10 
f 19/10/10 21/12/10 11/2/10 
f 20/11/10 11/2/10 22/13/10 
f 21/12/10 23/14/10 11/2/10 
f 22/13/10 11/2/10 24/15/10 
f 23/14/10 25/16/10 11/2/10 
f 24/15/10 11/2/10 26/17/10 
f 25/16/10 27/18/10 11/2/10 
f 26/17/10 11/2/10 28/19/10 
f 27/18/10 29/20/10 11/2/10 
f 28/19/10 11/2/10 30/21/10 
f 11/2/10 29/20/10 31/22/10 
f 11/2/10 32/23/10 30/21/10 
f 11/2/10 31/22/10 33/24/10 
f 11/2/10 34/25/10 32/23/10 
f 11/2/10 33/24/10 34/25/10 
# 0 polygons - 24 triangles

