# 3ds Max Wavefront OBJ Exporter v0.97b - (c)2007 guruware
# File Created: 13.03.2020 13:14:19

mtllib IcePillar000.mtl

#
# object SandWorldHomeIcePillar000
#

v  0.0100 0.0015 0.0015
v  0.0100 -0.0015 0.0015
v  0.0100 -0.0015 -0.0015
v  0.0100 0.0015 -0.0015
v  0.0150 0.0150 -0.0150
v  0.0150 -0.0150 -0.0150
v  0.0150 0.0150 0.0150
v  0.0150 -0.0150 0.0150
v  0.0000 0.0000 -0.0000
# 9 vertices

vn 0.9820 -0.1337 -0.1337
vn 0.9820 0.1337 -0.1337
vn 0.9820 0.1337 0.1337
vn 0.9820 -0.1337 0.1337
vn 0.3126 0.6717 -0.6717
vn 0.3126 -0.6717 -0.6717
vn 0.3126 0.6717 0.6717
vn 0.3126 -0.6717 0.6717
vn -1.0000 0.0000 -0.0000
# 9 vertex normals

o SandWorldHomeIcePillar000
g SandWorldHomeIcePillar000
usemtl wire_255255000
s 1
f 1//1 2//2 3//3 4//4 
s 2
f 5//5 4//4 3//3 6//6 
s 4
f 7//7 1//1 4//4 5//5 
s 8
f 2//2 8//8 6//6 3//3 
s 16
f 1//1 7//7 8//8 2//2 
s 32
f 9//9 7//7 5//5 
s 64
f 9//9 5//5 6//6 
s 128
f 9//9 6//6 8//8 
s 256
f 9//9 8//8 7//7 
# 5 polygons - 4 triangles

#
# object aaa6__SandIcePillar00
#

v  -179.4698 -295.2885 -1398.0454
v  -277.5046 -332.6959 -313.2182
v  -332.6686 -263.7789 -336.0785
v  -296.3867 -157.2181 -1384.7211
v  -296.9219 142.0933 -1358.5460
v  -333.8461 210.9421 -295.1366
v  -113.8126 300.0405 -1278.5651
v  -198.2893 340.9380 -90.3799
v  178.4572 305.5923 -1097.6698
v  266.3686 338.2970 -159.9326
v  338.9429 274.5119 -129.0528
v  303.8438 186.1563 -1139.2012
v  335.3964 -174.9341 -195.7984
v  291.4351 -107.0013 -1476.1890
v  173.2254 -333.3533 -261.9871
v  111.7766 -293.3134 -1421.5161
v  44.9870 -345.7779 65.9500
v  -183.4505 -346.3482 65.9500
v  -347.4210 -117.6003 65.9500
v  -347.5093 123.4741 65.9500
v  345.0316 -88.8938 65.9500
v  -169.5240 346.8359 65.9500
v  159.8759 347.3813 65.9500
v  346.4110 209.2473 65.9500
v  -106.8953 -16.5339 -2017.9502
v  -42.7063 50.4019 -2017.9502
v  62.5075 -31.4943 -2017.9390
v  -60.9767 -116.3971 -2017.9502
v  44.9362 -117.7982 -2017.5884
v  1.8102 -147.7104 -2017.9502
v  -100.3225 -135.2372 -1969.6118
v  1.3228 -203.7681 -1939.1704
v  213.7663 -174.1589 -1607.5977
v  131.7210 -256.4219 -1624.0540
v  -97.5031 -215.0511 -1867.6357
v  -189.9442 -246.2871 -1667.2776
v  288.4767 53.3465 -1558.7457
v  179.6246 63.7291 -1797.5475
v  32.8227 292.9858 -1492.9480
v  -10.3830 276.5131 -1648.8047
v  -142.4258 248.1638 -1635.5408
v  10.9087 210.5085 -1780.5273
v  -50.0751 98.0161 -1972.4437
v  -217.0625 175.8424 -1729.5535
v  -197.9922 111.3641 -1854.5050
v  -259.5652 86.6568 -1696.3359
v  -173.4103 -2.2678 -1957.5831
v  -263.2961 -160.7929 -1646.5859
v  -251.9569 -78.3453 -1769.0068
v  -196.4120 -46.2100 -1911.5164
# 50 vertices

vn -0.1972 -0.9785 -0.0612
vn -0.2504 -0.9680 -0.0183
vn -0.9759 -0.2165 -0.0274
vn -0.9821 -0.1784 -0.0610
vn -0.9575 0.2821 -0.0610
vn -0.9229 0.3820 -0.0489
vn -0.3364 0.9397 -0.0610
vn -0.2626 0.9648 -0.0176
vn 0.2138 0.9741 -0.0733
vn 0.2107 0.9769 -0.0351
vn 0.9773 0.2107 -0.0229
vn 0.9741 0.2092 -0.0855
vn 0.9435 -0.3313 -0.0061
vn 0.9161 -0.3916 -0.0855
vn 0.3674 -0.9299 -0.0183
vn 0.3252 -0.9437 -0.0611
vn 0.1429 -0.6037 0.7843
vn -0.2424 -0.8263 0.5084
vn -0.8602 -0.1373 0.4911
vn -0.5798 0.0999 0.8086
vn 0.4916 -0.1939 0.8489
vn -0.1571 0.4118 0.8976
vn 0.0778 0.5829 0.8088
vn 0.6375 0.1251 0.7602
vn -0.3892 0.0590 -0.9193
vn 0.2381 0.5461 -0.8032
vn 0.8078 0.0470 -0.5875
vn -0.3042 -0.3137 -0.8994
vn 0.8095 -0.3264 -0.4881
vn -0.0922 -0.5078 -0.8565
vn -0.6517 -0.5491 -0.5232
vn 0.3459 -0.8741 -0.3411
vn 0.8308 -0.4573 -0.3171
vn 0.3163 -0.9228 -0.2200
vn -0.2605 -0.9273 -0.2689
vn -0.3390 -0.9147 -0.2199
vn 0.8407 0.4551 -0.2935
vn 0.8554 0.2945 -0.4262
vn 0.4138 0.8863 -0.2078
vn 0.2991 0.9120 -0.2806
vn -0.4700 0.8683 -0.1587
vn 0.1191 0.8650 -0.4874
vn 0.1155 0.7842 -0.6097
vn -0.5492 0.7872 -0.2807
vn -0.5894 0.6442 -0.4874
vn -0.9814 0.0876 -0.1707
vn -0.7004 0.2055 -0.6836
vn -0.9447 -0.2797 -0.1712
vn -0.8979 -0.2447 -0.3659
vn -0.8746 -0.2492 -0.4159
# 50 vertex normals

vt 0.1617 0.6164 0.0000
vt 0.0987 0.1775 0.0000
vt 0.1345 0.1841 0.0000
vt 0.2315 0.5932 0.0000
vt 0.3403 0.5599 0.0000
vt 0.3123 0.1581 0.0000
vt 0.4229 0.5185 0.0000
vt 0.3751 0.0807 0.0000
vt 0.5211 0.4458 0.0000
vt 0.5416 0.1046 0.0000
vt 0.5755 0.0936 0.0000
vt 0.5803 0.4616 0.0000
vt 0.7350 0.1211 0.0000
vt 0.6703 0.5975 0.0000
vt 0.8152 0.1494 0.0000
vt 0.7676 0.5963 0.0000
vt 0.8825 0.6166 0.0000
vt 0.9866 0.1771 0.0000
vt 0.8638 0.0245 0.0000
vt 0.9515 0.0245 0.0000
vt 0.1818 0.9859 0.0000
vt 0.1112 0.9857 0.0000
vt 0.2324 0.9153 0.0000
vt 0.2324 0.8408 0.0000
vt 0.0186 0.9064 0.0000
vt 0.1837 0.0245 0.0000
vt 0.0721 0.0245 0.0000
vt 0.2766 0.0245 0.0000
vt 0.1775 0.7718 0.0000
vt 0.0757 0.7717 0.0000
vt 0.3844 0.0245 0.0000
vt 0.5066 0.0245 0.0000
vt 0.0181 0.8143 0.0000
vt 0.7095 0.0245 0.0000
vt 0.5965 0.0245 0.0000
vt 0.2565 0.9184 0.0000
vt 0.2766 0.8975 0.0000
vt 0.3095 0.9231 0.0000
vt 0.2709 0.9496 0.0000
vt 0.3017 0.9521 0.0000
vt 0.2905 0.9594 0.0000
vt 0.6795 0.8631 0.0000
vt 0.7219 0.8477 0.0000
vt 0.7098 0.8673 0.0000
vt 0.7063 0.8354 0.0000
vt 0.6520 0.8660 0.0000
vt 0.6910 0.6508 0.0000
vt 0.7325 0.6699 0.0000
vt 0.7769 0.8044 0.0000
vt 0.8507 0.7270 0.0000
vt 0.6075 0.6177 0.0000
vt 0.5762 0.7194 0.0000
vt 0.5848 0.8656 0.0000
vt 0.4817 0.5913 0.0000
vt 0.4714 0.6496 0.0000
vt 0.4247 0.6497 0.0000
vt 0.4858 0.7050 0.0000
vt 0.4697 0.8206 0.0000
vt 0.4816 0.8656 0.0000
vt 0.3852 0.8673 0.0000
vt 0.3960 0.6911 0.0000
vt 0.3974 0.7477 0.0000
vt 0.3586 0.6881 0.0000
vt 0.3736 0.8133 0.0000
vt 0.2622 0.6973 0.0000
vt 0.2243 0.7255 0.0000
vt 0.3099 0.7347 0.0000
vt 0.2636 0.8065 0.0000
vt 0.3449 0.7937 0.0000
vt 0.3053 0.8454 0.0000
vt 0.2485 0.8347 0.0000
vt 0.3179 0.8673 0.0000
# 72 texture coords

o aaa6__SandIcePillar00
g aaa6__SandIcePillar00
usemtl SandIcePillar00
s 1
f 10/1/10 11/2/11 12/3/12 
f 10/1/10 12/3/12 13/4/13 
f 13/4/13 12/3/12 14/5/14 
f 14/5/14 12/3/12 15/6/15 
f 14/5/14 15/6/15 16/7/16 
f 15/6/15 17/8/17 16/7/16 
f 17/8/17 18/9/18 16/7/16 
f 17/8/17 19/10/19 18/9/18 
f 19/10/19 20/11/20 21/12/21 
f 20/11/20 22/13/22 21/12/21 
f 21/12/21 22/13/22 23/14/23 
f 22/13/22 24/15/24 23/14/23 
f 25/16/25 23/14/23 24/15/24 
f 25/16/25 24/15/24 10/17/10 
f 10/17/10 24/15/24 11/18/11 
f 26/19/26 27/20/27 11/18/11 
f 26/19/26 11/18/11 24/15/24 
f 27/21/27 26/22/26 28/23/28 
f 26/22/26 29/24/29 28/23/28 
f 26/22/26 30/25/30 29/24/29 
f 28/26/28 11/2/11 27/27/27 
f 12/3/12 11/2/11 28/26/28 
f 15/6/15 12/3/12 28/26/28 
f 15/6/15 28/26/28 29/28/29 
f 30/25/30 31/29/31 29/24/29 
f 30/25/30 32/30/32 31/29/31 
f 15/6/15 29/28/29 17/8/17 
f 29/28/29 31/31/31 17/8/17 
f 31/31/31 32/32/32 17/8/17 
f 32/32/32 19/10/19 17/8/17 
f 30/25/30 33/33/33 32/30/32 
f 20/11/20 30/34/30 22/13/22 
f 20/11/20 33/35/33 30/34/30 
f 32/32/32 33/35/33 20/11/20 
f 32/32/32 20/11/20 19/10/19 
f 19/10/19 21/12/21 18/9/18 
f 30/34/30 26/19/26 22/13/22 
f 22/13/22 26/19/26 24/15/24 
f 34/36/34 35/37/35 36/38/36 
f 37/39/37 34/36/34 36/38/36 
f 37/39/37 36/38/36 38/40/38 
f 39/41/39 37/39/37 38/40/38 
f 39/42/39 40/43/40 37/44/37 
f 41/45/41 40/43/40 39/42/39 
f 38/46/38 41/45/41 39/42/39 
f 42/47/42 41/45/41 38/46/38 
f 42/47/42 43/48/43 41/45/41 
f 43/48/43 44/49/44 41/45/41 
f 43/48/43 45/50/45 44/49/44 
f 43/48/43 25/16/25 45/50/45 
f 45/50/45 25/16/25 10/17/10 
f 42/47/42 25/16/25 43/48/43 
f 42/47/42 23/14/23 25/16/25 
f 46/51/46 23/14/23 42/47/42 
f 46/51/46 21/12/21 23/14/23 
f 47/52/47 42/47/42 38/46/38 
f 47/52/47 46/51/46 42/47/42 
f 47/52/47 38/46/38 36/53/36 
f 46/51/46 48/54/48 21/12/21 
f 48/54/48 18/9/18 21/12/21 
f 48/54/48 16/7/16 18/9/18 
f 49/55/49 48/54/48 46/51/46 
f 49/55/49 46/51/46 47/52/47 
f 50/56/50 16/7/16 48/54/48 
f 50/56/50 48/54/48 49/55/49 
f 14/5/14 16/7/16 50/56/50 
f 51/57/51 49/55/49 47/52/47 
f 50/56/50 49/55/49 51/57/51 
f 52/58/52 47/52/47 36/53/36 
f 51/57/51 47/52/47 52/58/52 
f 52/58/52 36/53/36 35/59/35 
f 52/58/52 35/59/35 34/60/34 
f 53/61/53 50/56/50 51/57/51 
f 14/5/14 50/56/50 53/61/53 
f 54/62/54 51/57/51 52/58/52 
f 54/62/54 53/61/53 51/57/51 
f 55/63/55 14/5/14 53/61/53 
f 55/63/55 53/61/53 54/62/54 
f 13/4/13 14/5/14 55/63/55 
f 54/62/54 52/58/52 56/64/56 
f 56/64/56 52/58/52 34/60/34 
f 57/65/57 13/4/13 55/63/55 
f 10/1/10 13/4/13 57/65/57 
f 10/1/10 57/65/57 45/66/45 
f 57/65/57 55/63/55 58/67/58 
f 57/65/57 58/67/58 45/66/45 
f 58/67/58 55/63/55 54/62/54 
f 45/66/45 58/67/58 44/68/44 
f 58/67/58 54/62/54 59/69/59 
f 58/67/58 59/69/59 44/68/44 
f 59/69/59 54/62/54 56/64/56 
f 44/68/44 59/69/59 40/70/40 
f 59/69/59 56/64/56 40/70/40 
f 44/68/44 40/70/40 41/71/41 
f 40/70/40 56/64/56 34/60/34 
f 40/70/40 34/60/34 37/72/37 
# 0 polygons - 96 triangles

