# 3ds Max Wavefront OBJ Exporter v0.97b - (c)2007 guruware
# File Created: 22.03.2020 14:08:57

mtllib KoopaFootPrint000.mtl

#
# object SandWorldHomeKoopaFootPrint000
#

v  0.0100 0.0015 0.0015
v  0.0100 -0.0015 0.0015
v  0.0100 -0.0015 -0.0015
v  0.0100 0.0015 -0.0015
v  0.0150 0.0150 -0.0150
v  0.0150 -0.0150 -0.0150
v  0.0150 0.0150 0.0150
v  0.0150 -0.0150 0.0150
v  0.0000 0.0000 -0.0000
# 9 vertices

vn 0.9820 -0.1337 -0.1337
vn 0.9820 0.1337 -0.1337
vn 0.9820 0.1337 0.1337
vn 0.9820 -0.1337 0.1337
vn 0.3126 0.6717 -0.6717
vn 0.3126 -0.6717 -0.6717
vn 0.3126 0.6717 0.6717
vn 0.3126 -0.6717 0.6717
vn -1.0000 0.0000 -0.0000
# 9 vertex normals

o SandWorldHomeKoopaFootPrint000
g SandWorldHomeKoopaFootPrint000
usemtl wire_255255000
s 1
f 1//1 2//2 3//3 4//4 
s 2
f 5//5 4//4 3//3 6//6 
s 4
f 7//7 1//1 4//4 5//5 
s 8
f 2//2 8//8 6//6 3//3 
s 16
f 1//1 7//7 8//8 2//2 
s 32
f 9//9 7//7 5//5 
s 64
f 9//9 5//5 6//6 
s 128
f 9//9 6//6 8//8 
s 256
f 9//9 8//8 7//7 
# 5 polygons - 4 triangles

#
# object aa10__KoopaFootPrint
#

v  -18227.3594 -50010.4023 568.2803
v  -18062.0684 -50155.5117 572.8936
v  -18206.8125 -50319.6758 595.2278
v  -18372.1035 -50174.5664 590.6144
v  -17690.9805 -50230.6641 545.5930
v  -17544.3594 -50394.4805 553.7702
v  -17707.1406 -50538.4688 587.9671
v  -17853.7617 -50374.6523 579.7899
v  -18828.8867 -49710.4336 576.3618
v  -18616.4121 -49654.3477 565.9469
v  -18772.4590 -49922.9727 583.0259
v  -18559.9844 -49866.8867 572.6110
v  -18029.4199 -50024.0625 555.6918
v  -18006.1309 -49807.0078 528.3834
v  -17811.7441 -50049.7891 536.8423
v  -17788.4551 -49832.7344 509.5340
v  -18477.1426 -49714.7695 550.1773
v  -18410.1758 -49505.9844 532.1601
v  -18268.6992 -49783.0859 533.3145
v  -18201.7324 -49574.3008 515.2973
v  -17351.2168 -50574.3672 562.4540
v  -17294.1602 -50365.4492 523.7603
v  -17140.0273 -50634.5273 549.0356
v  -17082.9707 -50425.6094 510.3419
v  -16874.9629 -50590.5508 509.9982
v  -16875.2070 -50374.4141 468.9427
v  -16657.2148 -50596.1719 479.1078
v  -16657.4590 -50380.0352 438.0522
v  -17522.4063 -50202.3164 528.9761
v  -17549.5449 -49986.5508 495.6805
v  -17305.9785 -50180.1367 496.3137
v  -17333.1172 -49964.3711 463.0181
v  -17134.6172 -50261.1719 489.8737
v  -17191.4688 -50051.5117 455.0963
v  -16924.6797 -50211.3711 446.9104
v  -16981.5313 -50001.7109 412.1331
v  -16670.5039 -50232.7813 410.9306
v  -16755.1973 -50032.2773 378.9079
v  -16470.9824 -50157.0352 357.5060
v  -16555.6758 -49956.5313 325.4833
v  -21465.0879 -42837.3477 569.2744
v  -21249.5742 -42867.3164 601.7740
v  -21285.3379 -43080.5742 642.2841
v  -21500.8516 -43050.6055 609.7844
v  -21866.7949 -42795.3516 497.5760
v  -21738.6035 -42963.6563 557.9078
v  -21913.8496 -43096.6484 559.2592
v  -22042.0410 -42928.3438 498.9274
v  -22159.0020 -42750.9375 413.6882
v  -22168.8555 -42960.5313 479.8138
v  -22377.8066 -42972.1172 411.9530
v  -22367.9531 -42762.5234 345.8274
v  -21443.1445 -42418.0234 456.8566
v  -21237.2090 -42478.7695 504.8202
v  -21308.1680 -42681.3906 552.8690
v  -21514.1035 -42620.6445 504.9054
v  -21619.3418 -42478.0898 478.2553
v  -21622.2402 -42690.1289 536.8417
v  -21841.1855 -42693.0273 515.5212
v  -21838.2871 -42480.9883 456.9347
v  -23095.4023 -43197.9570 251.7187
v  -23287.9492 -43303.2617 236.3356
v  -23382.3906 -43119.5273 160.6850
v  -23189.8438 -43014.2227 176.0681
v  -22876.8027 -42755.7109 225.9937
v  -22981.1855 -42947.0391 196.0229
v  -23067.1465 -42648.0781 201.8243
v  -23171.5293 -42839.4063 171.8535
v  -22571.4082 -42347.0703 296.1320
v  -22544.5410 -42565.0391 283.1960
v  -22762.3848 -42590.9063 266.6051
v  -22789.2520 -42372.9375 279.5412
v  -22362.6270 -42147.5703 281.3545
v  -22165.9590 -42246.1484 283.3031
v  -22264.4980 -42442.5078 294.8199
v  -22461.1660 -42343.9297 292.8713
v  -21775.6660 -42106.0391 254.3654
v  -21776.6641 -42309.4297 338.8279
v  -21991.3027 -42327.0078 292.7526
v  -22001.2363 -42103.1406 264.7718
v  -23846.1445 -40072.0039 534.8992
v  -23688.9570 -40225.9258 534.3036
v  -23842.8477 -40383.0977 538.1661
v  -24000.0352 -40229.1758 538.7617
v  -24127.3379 -40248.6680 539.6327
v  -24074.8711 -40462.3203 539.8314
v  -24288.5215 -40514.7852 540.6298
v  -24340.9883 -40301.1328 540.4310
v  -23725.7949 -39818.9023 544.8243
v  -23843.3574 -40004.8594 544.2587
v  -24029.2676 -39887.3164 547.2921
v  -23911.7051 -39701.3594 548.5208
v  -24187.6172 -39568.3047 545.0057
v  -24110.3516 -39774.2813 546.9365
v  -24316.3242 -39851.5625 545.0892
v  -24393.5898 -39645.5859 543.1585
v  -24097.6504 -39192.4570 547.1541
v  -23877.6563 -39192.4570 548.8238
v  -24097.6523 -39412.4570 547.2853
v  -23877.6582 -39412.4570 548.9551
v  -24128.3027 -39111.1875 540.9200
v  -24336.7344 -39181.4531 536.5717
v  -24407.0957 -38973.0781 542.0605
v  -24198.6641 -38902.8125 546.4088
v  -24499.7988 -39598.6875 540.5023
v  -24566.6660 -39808.2500 544.0688
v  -24709.2559 -39532.0078 531.4841
v  -24776.1230 -39741.5703 535.0505
v  -24747.2422 -39258.6602 523.1761
v  -24527.4453 -39258.5039 532.6102
v  -24747.3945 -39478.5430 530.3301
v  -24527.5977 -39478.3867 539.7642
v  -24944.8555 -39739.6406 526.8547
v  -25163.3516 -39765.2813 528.2224
v  -25189.0156 -39546.8438 523.1989
v  -24970.5195 -39521.2031 521.8312
v  -24668.3555 -39160.6367 531.8185
v  -24826.6992 -39008.2344 521.7733
v  -24516.2695 -39001.9766 541.6082
v  -24674.6133 -38849.5742 531.5629
v  -24980.4102 -39397.8086 513.7527
v  -25162.8047 -39520.7461 518.0154
v  -25103.2070 -39216.2930 494.4709
v  -25285.6016 -39339.2305 498.7335
v  -25011.2246 -38847.1523 495.1309
v  -25053.8555 -38631.5000 486.3872
v  -24796.8516 -38803.8125 518.9187
v  -24839.4824 -38588.1602 510.1750
v  -22738.8438 -34170.5195 543.4653
v  -22936.1875 -34267.7461 544.8466
v  -23033.3711 -34070.6289 534.8193
v  -22836.0273 -33973.4023 533.4380
v  -21774.0527 -34075.1680 548.8215
v  -21983.2109 -34143.3438 546.6581
v  -22049.8418 -33937.6367 506.1154
v  -21840.6836 -33869.4609 508.2788
v  -21121.9063 -33972.9219 541.8867
v  -21313.9668 -34079.8906 550.2250
v  -21421.2617 -33888.4688 534.5545
v  -21229.2012 -33781.5000 526.2161
v  -22240.7402 -34071.5586 528.3309
v  -22452.0879 -34132.6094 530.5255
v  -22512.9941 -33922.6445 505.9081
v  -22301.6465 -33861.5938 503.7135
v  -20412.8730 -33782.7422 518.9526
v  -20501.3555 -33983.3125 537.4656
v  -20614.2344 -33695.1563 505.4255
v  -20702.7168 -33895.7266 523.9385
v  -21516.3242 -33710.7148 488.3488
v  -21640.9473 -33888.8438 522.0959
v  -21697.4316 -33590.2891 455.2211
v  -21822.0547 -33768.4180 488.9682
v  -20918.7500 -33677.8125 503.6340
v  -21100.7129 -33799.2734 526.7957
v  -21042.2598 -33501.2422 459.2645
v  -21224.2227 -33622.7031 482.4262
v  -22579.3418 -33596.8125 449.0218
v  -22624.4980 -33808.3594 489.1291
v  -22794.6504 -33552.7969 438.7857
v  -22839.8066 -33764.3438 478.8930
v  -22043.3984 -33533.6484 424.7933
v  -22099.4727 -33741.1953 471.4896
v  -22256.0625 -33477.7109 418.0485
v  -22312.1367 -33685.2578 464.7448
v  -19695.3281 -34293.3906 535.8362
v  -19910.6895 -34248.4609 536.8275
v  -19866.3203 -34035.1172 506.5742
v  -19650.9590 -34080.0469 505.5829
v  -19401.8867 -34204.5469 499.1165
v  -19391.5625 -33988.0469 461.4192
v  -19172.8242 -34001.7969 442.3390
v  -19183.1484 -34218.2969 480.0363
v  -19221.9805 -34473.1133 517.2181
v  -19186.9355 -34689.9766 529.1647
v  -19438.6074 -34507.1406 534.9636
v  -19403.5625 -34724.0039 546.9102
v  -19197.8652 -35092.5000 543.9172
v  -19404.5098 -35017.0195 544.6555
v  -19329.0371 -34810.3750 543.0494
v  -19122.3926 -34885.8555 542.3110
v  -18993.0781 -34458.5039 487.6240
v  -18787.4727 -34388.7695 452.0798
v  -18919.1328 -34664.3164 511.5608
v  -18713.5273 -34594.5820 476.0166
v  -18988.7969 -34945.4453 536.6821
v  -18775.1543 -34896.3086 518.1685
v  -18938.6035 -35159.3320 548.2122
v  -18724.9609 -35110.1953 529.6987
v  -18756.8594 -34699.0469 490.7283
v  -18547.0781 -34644.9922 452.3831
v  -18488.5703 -34855.8359 475.2458
v  -18698.3516 -34909.8906 513.5911
v  -18612.3184 -35140.2969 524.6618
v  -18441.8633 -35006.3633 487.1444
v  -18476.1406 -35313.0742 526.5821
v  -18305.6855 -35179.1406 489.0647
v  4719.1323 -55866.2227 30.8210
v  4666.1475 -55654.2969 56.8935
v  4930.1240 -55810.1328 3.6837
v  4877.1392 -55598.2070 29.7563
v  5697.5420 -55858.9609 -35.9002
v  5914.7505 -55887.4570 -15.6921
v  5883.6416 -56103.1328 14.5614
v  5666.4331 -56074.6367 -5.6467
v  5322.0605 -55891.7539 -33.7637
v  5539.3804 -55925.9102 -31.4382
v  5505.1611 -56142.1445 -9.7300
v  5287.8413 -56107.9883 -12.0555
v  4920.0303 -55948.9141 -7.0241
v  5136.8872 -55984.3281 -17.9334
v  5102.4561 -56200.8359 0.4545
v  4885.5991 -56165.4219 11.3638
v  5905.1357 -55717.9805 -36.3637
v  5838.9302 -55508.1914 -33.9053
v  6114.8862 -55651.8555 -30.7115
v  6048.6807 -55442.0664 -28.2530
v  5544.1846 -55746.2891 -27.2935
v  5481.2437 -55535.8086 -15.6342
v  5754.1372 -55682.6055 -43.5493
v  5691.1963 -55472.1250 -31.8901
v  5110.0610 -55797.6680 -1.9247
v  5043.7466 -55588.2148 9.5233
v  5318.8853 -55730.6133 -19.1278
v  5252.5708 -55521.1602 -7.6797
v  6047.4580 -56085.8398 28.0017
v  6084.3174 -55871.5000 -5.1533
v  6263.7041 -56119.5703 50.3629
v  6300.5635 -55905.2305 17.2079
v  6458.4473 -56040.9063 80.4969
v  6495.1274 -55829.5781 31.5482
v  6673.5952 -56070.0156 116.0500
v  6710.2754 -55858.6875 67.1013
v  6891.0327 -56033.6719 136.0002
v  6876.6772 -55822.5078 75.9666
v  7108.9556 -56012.6953 157.6703
v  7094.6001 -55801.5313 97.6367
v  6707.0767 -55711.6406 31.2503
v  6642.5781 -55504.3750 -4.5400
v  6916.8403 -55645.5000 36.2472
v  6852.3413 -55438.2344 0.4569
v  6231.2925 -55504.0508 -29.1772
v  6441.0557 -55437.9141 -24.1803
v  6264.0454 -55608.6406 -24.4191
v  6473.8091 -55542.5000 -14.7737
v  6296.7988 -55713.2266 -10.3640
v  6506.5620 -55647.0898 -5.3671
v  479.0948 -19494.7617 251.8097
v  528.9004 -19708.6230 238.2859
v  320.0433 -19753.9648 186.1040
v  270.2377 -19540.1035 199.6277
v  747.1423 -19213.9043 299.2421
v  849.9147 -19408.0352 291.2679
v  752.9409 -19458.4238 279.5178
v  651.4161 -19263.1445 288.2036
v  658.1843 -19506.9473 276.7113
v  554.4919 -19313.6660 284.1606
v  404.9287 -19119.3203 273.7133
v  406.7726 -19338.1758 251.3705
v  300.5325 -19336.1211 222.4941
v  298.6887 -19117.2676 244.8369
v  192.1056 -19335.0781 203.3234
v  190.2618 -19116.2227 225.6662
v  681.1063 -18812.0430 327.6410
v  779.7403 -19007.8594 309.5486
v  583.5648 -19104.4336 285.2806
v  484.9309 -18908.6172 303.3731
v  294.1047 -18722.6621 291.1706
v  297.9854 -18940.9980 264.4368
v  82.9106 -18939.1582 218.1826
v  79.0299 -18720.8223 244.9164
v  712.2531 -18617.4980 346.3916
v  520.1342 -18719.8750 314.6228
v  606.6865 -18425.4805 366.0027
v  414.0650 -18528.7324 333.4554
v  244.0021 -18343.6367 336.0614
v  249.8967 -18560.9395 302.2290
v  34.2791 -18559.9883 258.5467
v  28.3845 -18342.6855 292.3791
v  205.4631 -17755.8828 422.6000
v  339.0791 -17688.2461 453.2677
v  282.1084 -17899.9121 408.4108
v  146.5090 -17979.9648 372.6529
v  152.6185 -18195.6602 334.8325
v  -63.7471 -18193.8789 299.6476
v  -69.8566 -17978.1836 339.3109
v  623.6741 -18270.7813 387.1974
v  430.4608 -18368.4355 350.4526
v  572.4390 -18174.2793 395.6520
v  327.6286 -18176.1074 367.1894
v  520.8694 -18078.4004 403.9473
v  307.6800 -17947.9668 400.2833
v  502.1517 -17849.5234 430.1151
v  399.9348 -17657.4395 462.6029
v  26.8779 -17599.1836 440.6727
v  23.5686 -17814.5918 396.0802
v  -80.5530 -17592.8223 410.1310
v  -83.8623 -17808.2285 365.5386
v  -191.2932 -17801.8672 346.6458
v  -187.9839 -17586.4590 395.1485
v  70.4353 -17390.7871 488.9684
v  167.7543 -17341.4727 501.9404
v  172.5283 -17582.8281 459.7686
v  269.8473 -17533.5117 468.8043
v  367.1663 -17484.1953 487.8400
v  265.0732 -17292.1563 520.9761
# 305 vertices

vn 0.0000 0.0000 -1.0000
vn -0.1938 0.0000 -0.9810
vn -0.1926 0.0000 -0.9813
vn -0.1949 0.0000 -0.9808
vn -0.1967 0.0000 -0.9805
vn -0.1961 0.0000 -0.9806
vn -0.1840 -0.3680 -0.9114
vn -0.1855 -0.3709 -0.9099
vn -0.1855 -0.3709 -0.9100
vn 0.1835 -0.3671 -0.9119
vn 0.1850 -0.3700 -0.9104
vn 0.1845 -0.3690 -0.9109
vn 0.3689 -0.3689 -0.8531
vn 0.1865 -0.3729 -0.9089
vn 0.1855 -0.3709 -0.9100
vn 0.1855 -0.3709 -0.9099
vn 0.1889 -0.3779 -0.9064
vn 0.1947 0.0000 -0.9809
vn 0.0000 -0.3754 -0.9268
vn 0.1952 -0.3904 -0.8997
vn 0.1926 0.0000 -0.9813
vn 0.0000 -0.3714 -0.9285
vn 0.0000 -0.3724 -0.9281
vn -0.1955 0.0000 -0.9807
vn -0.1944 0.0000 -0.9809
vn -0.1470 0.0000 -0.9891
vn -0.1471 0.0000 -0.9891
vn 0.0495 0.0000 -0.9988
vn 0.0494 0.0000 -0.9988
vn -0.0490 0.0000 -0.9988
vn -0.0976 0.0000 -0.9952
vn 0.0988 0.0000 -0.9951
vn 0.1398 -0.3728 -0.9173
vn 0.1398 -0.3727 -0.9174
vn 0.0941 -0.3763 -0.9217
vn 0.0489 0.0000 -0.9988
vn 0.0490 0.0000 -0.9988
vn 0.0491 0.0000 -0.9988
vn 0.2141 0.1930 -0.9575
vn 0.2170 0.1929 -0.9569
vn 0.0734 0.0000 -0.9973
vn 0.0428 0.0000 -0.9991
vn 0.0122 0.0000 -0.9999
vn 0.2592 0.1929 -0.9464
vn 0.2588 0.1926 -0.9465
vn 0.2167 0.1926 -0.9571
vn 0.1716 0.1926 -0.9662
vn 0.0603 0.1929 -0.9794
vn 0.0633 0.1928 -0.9792
vn 0.2081 0.1930 -0.9589
vn 0.2066 0.1930 -0.9592
vn 0.0847 0.1937 -0.9774
vn 0.1956 0.1941 -0.9613
vn 0.1963 0.1940 -0.9611
vn 0.1961 0.1941 -0.9612
vn 0.1381 0.1942 -0.9712
vn 0.1366 0.1943 -0.9714
vn 0.1538 0.1950 -0.9687
vn 0.1546 0.1949 -0.9686
vn 0.1150 0.1937 -0.9743
vn 0.1120 0.1937 -0.9746
vn 0.0519 0.1953 -0.9794
vn 0.2798 0.1953 -0.9400
vn 0.2228 0.1953 -0.9551
vn 0.1652 0.1958 -0.9666
vn 0.0235 0.1943 -0.9807
vn 0.0534 0.1952 -0.9793
vn 0.0228 0.1943 -0.9807
vn 0.0827 0.1960 -0.9771
vn 0.0825 0.1954 -0.9772
# 70 vertex normals

vt 1.0000 0.0000 0.0000
vt 1.0000 1.0000 0.0000
vt 0.0000 1.0000 0.0000
vt 0.0000 0.0000 0.0000
vt 0.9995 0.0005 0.0000
vt 0.0000 1.0001 0.0000
vt 0.0000 0.0005 0.0000
vt 1.0000 0.0005 0.0000
vt 0.5000 0.0000 0.0000
vt 0.5000 1.0000 0.0000
vt 0.5000 0.0005 0.0000
vt 0.6870 0.0000 0.0000
vt 0.0000 0.7500 0.0000
vt 1.0000 0.5000 0.0000
# 14 texture coords

o aa10__KoopaFootPrint
g aa10__KoopaFootPrint
usemtl KoopaFootPrint
s 1
f 10/1/10 11/2/10 12/3/10 
f 13/4/10 10/1/10 12/3/10 
f 14/1/10 15/2/10 16/3/10 
f 17/4/10 14/1/10 16/3/10 
f 18/4/10 19/1/10 20/3/10 
f 19/1/10 21/2/10 20/3/10 
f 22/4/11 23/1/11 24/3/11 
f 23/1/11 25/2/11 24/3/11 
f 26/4/12 27/1/12 28/3/12 
f 27/1/12 29/2/12 28/3/12 
f 30/4/13 31/1/13 32/3/13 
f 31/1/13 33/2/13 32/3/13 
f 34/4/14 35/1/14 36/3/14 
f 35/1/14 37/2/14 36/3/14 
f 38/4/15 39/1/15 40/3/15 
f 39/1/15 41/2/15 40/3/15 
f 42/4/16 43/1/16 44/3/16 
f 43/1/16 45/2/16 44/3/16 
f 46/4/17 47/1/18 48/3/18 
f 47/1/18 49/2/17 48/3/18 
f 50/1/19 51/2/19 52/3/19 
f 53/4/19 50/1/19 52/3/19 
f 54/1/20 55/2/21 56/3/21 
f 57/4/20 54/1/20 56/3/21 
f 58/1/22 59/2/22 60/3/22 
f 61/4/22 58/1/22 60/3/22 
f 62/1/23 63/2/23 64/3/23 
f 65/4/23 62/1/23 64/3/23 
f 66/1/24 67/2/25 68/3/24 
f 69/4/25 66/1/24 68/3/24 
f 70/1/26 71/2/26 72/3/26 
f 73/4/26 70/1/26 72/3/26 
f 74/4/27 75/1/27 76/3/27 
f 75/1/27 77/2/27 76/3/27 
f 78/1/10 79/2/10 80/3/10 
f 81/4/10 78/1/10 80/3/10 
f 82/1/10 83/2/10 84/3/10 
f 85/4/10 82/1/10 84/3/10 
f 86/4/28 87/5/29 88/2/28 
f 86/4/28 88/2/28 89/3/10 
f 90/1/10 91/2/10 92/3/10 
f 93/4/10 90/1/10 92/3/10 
f 94/1/10 95/2/10 96/3/10 
f 97/4/10 94/1/10 96/3/10 
f 98/2/10 99/6/10 100/7/10 
f 101/8/10 98/2/10 100/7/10 
f 102/1/10 103/2/10 104/3/10 
f 105/4/10 102/1/10 104/3/10 
f 106/4/10 107/1/10 108/3/10 
f 107/1/10 109/2/10 108/3/10 
f 110/1/10 111/2/10 112/3/10 
f 113/4/10 110/1/10 112/3/10 
f 114/4/10 115/1/10 116/3/10 
f 115/1/10 117/2/10 116/3/10 
f 118/4/10 119/1/10 120/3/10 
f 119/1/10 121/2/10 120/3/10 
f 122/1/10 123/2/10 124/3/10 
f 125/4/10 122/1/10 124/3/10 
f 126/4/10 127/1/10 128/3/10 
f 127/1/10 129/2/10 128/3/10 
f 130/4/10 131/1/10 132/3/10 
f 131/1/10 133/2/10 132/3/10 
f 134/1/30 135/2/30 136/4/30 
f 135/2/30 137/3/30 136/4/30 
f 138/1/10 139/2/10 140/3/10 
f 141/4/10 138/1/10 140/3/10 
f 142/1/10 143/2/10 144/3/10 
f 145/4/10 142/1/10 144/3/10 
f 146/1/10 147/2/10 148/3/10 
f 149/4/10 146/1/10 148/3/10 
f 150/1/10 151/2/10 152/3/10 
f 153/4/10 150/1/10 152/3/10 
f 154/4/10 155/1/10 156/3/10 
f 155/1/10 157/2/10 156/3/10 
f 158/4/31 159/1/31 160/3/31 
f 159/1/31 161/2/31 160/3/31 
f 162/4/32 163/1/31 164/3/32 
f 163/1/31 165/2/32 164/3/32 
f 166/4/10 167/1/10 168/3/10 
f 167/1/10 169/2/10 168/3/10 
f 170/4/31 171/1/31 172/3/31 
f 171/1/31 173/2/31 172/3/31 
f 174/1/10 175/2/10 176/3/10 
f 177/4/10 174/1/10 176/3/10 
f 178/1/10 179/2/10 180/3/10 
f 181/4/10 178/1/10 180/3/10 
f 182/4/10 183/1/10 184/3/10 
f 183/1/10 185/2/10 184/3/10 
f 186/1/10 187/2/10 188/3/10 
f 189/4/10 186/1/10 188/3/10 
f 190/4/33 191/1/33 192/3/33 
f 191/1/33 193/2/33 192/3/33 
f 194/4/10 195/1/10 196/3/10 
f 195/1/10 197/2/10 196/3/10 
f 198/1/33 199/2/33 200/3/33 
f 201/4/15 198/1/33 200/3/33 
f 202/4/13 203/1/34 204/3/13 
f 203/1/34 205/2/34 204/3/13 
f 206/4/35 207/1/35 208/3/36 
f 207/1/35 209/2/35 208/3/36 
f 210/1/37 211/2/37 212/3/37 
f 213/4/38 210/1/37 212/3/37 
f 214/1/10 215/2/10 216/3/10 
f 217/4/10 214/1/10 216/3/10 
f 218/1/39 219/2/39 220/3/39 
f 221/4/39 218/1/39 220/3/39 
f 222/4/10 223/1/10 224/3/10 
f 223/1/10 225/2/10 224/3/10 
f 226/4/40 227/1/40 228/3/40 
f 227/1/40 229/2/40 228/3/40 
f 230/4/40 231/1/40 232/3/40 
f 231/1/40 233/2/40 232/3/40 
f 234/4/41 235/1/41 236/3/41 
f 235/1/41 237/2/41 236/3/41 
f 238/4/42 239/1/43 240/3/42 
f 239/1/43 241/2/42 240/3/42 
f 242/4/44 243/1/44 244/3/44 
f 243/1/44 245/2/44 244/3/44 
f 246/4/38 247/1/38 248/3/38 
f 247/1/38 249/2/38 248/3/38 
f 250/1/45 251/2/45 252/9/46 
f 251/2/45 253/10/46 252/9/46 
f 252/9/46 253/10/46 254/4/47 
f 253/10/46 255/3/47 254/4/47 
f 256/1/48 257/2/49 258/3/48 
f 259/4/48 256/1/48 258/3/48 
f 260/1/50 261/2/50 262/10/51 
f 263/9/51 260/1/50 262/10/51 
f 263/9/51 262/10/51 264/3/52 
f 265/4/52 263/9/51 264/3/52 
f 266/1/53 267/2/54 268/10/55 
f 269/11/55 266/1/53 268/10/55 
f 269/11/55 268/10/55 270/3/56 
f 271/4/56 269/11/55 270/3/56 
f 272/1/57 273/2/57 274/3/57 
f 275/4/58 272/1/57 274/3/57 
f 276/1/59 277/2/59 278/3/60 
f 279/4/60 276/1/59 278/3/60 
f 280/2/61 281/3/61 282/1/61 
f 281/3/61 283/4/61 282/1/61 
f 284/1/62 285/2/62 286/3/63 
f 287/4/64 284/1/62 286/3/63 
f 288/4/65 289/12/66 290/13/66 
f 291/1/67 292/2/67 293/3/68 
f 294/4/68 291/1/67 293/3/68 
f 295/2/69 296/3/70 297/14/69 
f 296/3/70 298/4/70 297/14/69 
f 297/14/69 298/4/70 299/5/69 
f 300/3/71 290/13/71 301/2/71 
f 290/13/71 289/12/71 301/2/71 
f 301/2/71 289/12/71 302/1/71 
f 303/1/72 304/2/72 305/9/73 
f 304/2/72 306/10/73 305/9/73 
f 305/9/73 306/10/73 307/3/74 
f 308/4/74 305/9/73 307/3/74 
f 309/4/75 310/9/76 311/3/77 
f 310/9/76 312/10/71 311/3/77 
f 313/2/78 312/10/71 310/9/76 
f 314/1/79 313/2/78 310/9/76 
# 0 polygons - 159 triangles

