# 3ds Max Wavefront OBJ Exporter v0.97b - (c)2007 guruware
# File Created: 22.03.2020 14:11:52

mtllib Lift002.mtl

#
# object SandWorldHomeLift002
#

v  0.0100 0.0015 0.0015
v  0.0100 -0.0015 0.0015
v  0.0100 -0.0015 -0.0015
v  0.0100 0.0015 -0.0015
v  0.0150 0.0150 -0.0150
v  0.0150 -0.0150 -0.0150
v  0.0150 0.0150 0.0150
v  0.0150 -0.0150 0.0150
v  0.0000 0.0000 -0.0000
# 9 vertices

vn 0.9820 -0.1337 -0.1337
vn 0.9820 0.1337 -0.1337
vn 0.9820 0.1337 0.1337
vn 0.9820 -0.1337 0.1337
vn 0.3126 0.6717 -0.6717
vn 0.3126 -0.6717 -0.6717
vn 0.3126 0.6717 0.6717
vn 0.3126 -0.6717 0.6717
vn -1.0000 0.0000 -0.0000
# 9 vertex normals

o SandWorldHomeLift002
g SandWorldHomeLift002
usemtl wire_255255000
s 1
f 1//1 2//2 3//3 4//4 
s 2
f 5//5 4//4 3//3 6//6 
s 4
f 7//7 1//1 4//4 5//5 
s 8
f 2//2 8//8 6//6 3//3 
s 16
f 1//1 7//7 8//8 2//2 
s 32
f 9//9 7//7 5//5 
s 64
f 9//9 5//5 6//6 
s 128
f 9//9 6//6 8//8 
s 256
f 9//9 8//8 7//7 
# 5 polygons - 4 triangles

#
# object polySurface166__EdgeStoneBlock02
#

v  100.0000 200.0000 50.0000
v  -100.0000 200.0000 50.0000
v  100.0000 100.0000 50.0000
v  -100.0000 100.0000 50.0000
v  -200.0000 100.0000 50.0000
v  -200.0000 -100.0000 50.0000
v  -100.0000 -100.0000 50.0000
v  -100.0000 -200.0000 50.0000
v  100.0000 -200.0000 50.0000
v  100.0000 -100.0000 50.0000
v  200.0000 -100.0000 50.0000
v  200.0000 100.0000 50.0000
# 12 vertices

vn 0.0000 0.0000 1.0000
# 1 vertex normals

vt 0.0026 0.5598 0.0000
vt -0.2474 0.5598 0.0000
vt 0.0026 0.4357 0.0000
vt -0.2474 0.4357 0.0000
vt -0.3745 0.5598 0.0000
vt -0.6245 0.5598 0.0000
vt -0.3745 0.4357 0.0000
vt -0.6245 0.4357 0.0000
vt -0.2500 0.5598 0.0000
vt -0.5000 0.5598 0.0000
vt -0.2500 0.4357 0.0000
vt -0.5000 0.4357 0.0000
vt 0.1268 0.5598 0.0000
vt -0.1232 0.5598 0.0000
vt 0.1268 0.4357 0.0000
vt -0.1232 0.4357 0.0000
# 16 texture coords

o polySurface166__EdgeStoneBlock02
g polySurface166__EdgeStoneBlock02
usemtl EdgeStoneBlock02
s 1
f 10/1/10 11/2/10 12/3/10 
f 11/2/10 13/4/10 12/3/10 
f 14/5/10 15/6/10 13/7/10 
f 15/6/10 16/8/10 13/7/10 
f 17/9/10 18/10/10 16/11/10 
f 18/10/10 19/12/10 16/11/10 
f 20/13/10 21/14/10 19/15/10 
f 21/14/10 12/16/10 19/15/10 
# 0 polygons - 8 triangles

#
# object polySurface170__StoneLift01
#

v  100.0000 100.0000 50.0000
v  -100.0000 100.0000 50.0000
v  100.0000 -100.0000 50.0000
v  -100.0000 -100.0000 50.0000
v  -100.0000 100.0000 -0.0000
v  100.0000 100.0000 -0.0000
v  -100.0000 -100.0000 -0.0000
v  100.0000 -100.0000 -0.0000
# 8 vertices

vn 0.0000 0.0000 1.0000
vn 0.0000 0.0000 -1.0000
# 2 vertex normals

vt 0.0000 0.0000 0.0000
vt 1.0000 0.0000 0.0000
vt 0.0000 1.0000 0.0000
vt 1.0000 1.0000 0.0000
# 4 texture coords

o polySurface170__StoneLift01
g polySurface170__StoneLift01
usemtl StoneLift01
s 1
f 22/17/11 23/18/11 24/19/11 
f 23/18/11 25/20/11 24/19/11 
f 26/18/12 27/20/12 28/17/12 
f 27/20/12 29/19/12 28/17/12 
# 0 polygons - 4 triangles

#
# object polySurface175__StonePillar00
#

v  -100.0000 200.0000 50.0000
v  -100.0000 200.0000 -0.0000
v  -200.0000 200.0000 50.0000
v  -200.0000 200.0000 -0.0000
v  -100.0000 100.0000 50.0000
v  -200.0000 100.0000 50.0000
v  -200.0000 100.0000 -0.0000
v  -100.0000 100.0000 -0.0000
v  200.0000 200.0000 50.0000
v  200.0000 200.0000 -0.0000
v  100.0000 200.0000 50.0000
v  100.0000 200.0000 -0.0000
v  200.0000 100.0000 50.0000
v  100.0000 100.0000 50.0000
v  100.0000 100.0000 -0.0000
v  200.0000 100.0000 -0.0000
v  200.0000 -200.0000 -0.0000
v  200.0000 -200.0000 50.0000
v  100.0000 -200.0000 -0.0000
v  100.0000 -200.0000 50.0000
v  100.0000 -100.0000 50.0000
v  100.0000 -100.0000 -0.0000
v  200.0000 -100.0000 50.0000
v  200.0000 -100.0000 -0.0000
v  -100.0000 -200.0000 -0.0000
v  -100.0000 -200.0000 50.0000
v  -200.0000 -200.0000 -0.0000
v  -200.0000 -200.0000 50.0000
v  -100.0000 -100.0000 50.0000
v  -200.0000 -100.0000 50.0000
v  -100.0000 -100.0000 -0.0000
v  -200.0000 -100.0000 -0.0000
# 32 vertices

vn 0.4089 0.4089 0.8159
vn 0.4089 0.4089 -0.8158
vn -0.4089 0.4089 0.8159
vn -0.4089 0.4089 -0.8158
vn 0.0000 0.0000 1.0000
vn -0.4089 -0.4089 0.8159
vn -0.4089 -0.4089 -0.8158
vn 1.0000 0.0000 -0.0000
vn 0.4089 -0.4089 -0.8158
vn 0.4089 -0.4089 0.8159
vn -1.0000 0.0000 -0.0000
vn 0.4478 0.0000 0.8941
vn 0.0000 1.0000 -0.0000
vn 0.0000 0.0000 -1.0000
vn 0.0000 -1.0000 -0.0000
# 15 vertex normals

vt 0.7738 0.7033 0.0000
vt 0.7738 0.7658 0.0000
vt 0.6488 0.7033 0.0000
vt 0.6488 0.7658 0.0000
vt 0.7738 0.5783 0.0000
vt 0.6488 0.5783 0.0000
vt 0.6448 0.6413 0.0000
vt 0.6448 0.7038 0.0000
vt 0.5198 0.6413 0.0000
vt 0.5198 0.7038 0.0000
vt 0.6440 0.6383 0.0000
vt 0.5191 0.6383 0.0000
vt 0.6440 0.5758 0.0000
vt 0.5191 0.5758 0.0000
vt 0.7738 0.8908 0.0000
vt 0.7738 0.9533 0.0000
vt 0.6488 0.8908 0.0000
vt 0.6488 0.9533 0.0000
# 18 texture coords

o polySurface175__StonePillar00
g polySurface175__StonePillar00
usemtl StonePillar00
s 1
f 30/21/13 31/22/14 32/23/15 
f 31/22/14 33/24/16 32/23/15 
f 34/25/17 30/21/13 35/26/18 
f 30/21/13 32/23/15 35/26/18 
f 32/27/15 33/28/16 35/29/18 
f 33/28/16 36/30/19 35/29/18 
f 30/31/13 34/32/20 31/33/14 
f 34/32/20 37/34/21 31/33/14 
f 38/21/13 39/22/14 40/23/15 
f 39/22/14 41/24/16 40/23/15 
f 42/25/22 38/21/13 43/26/17 
f 38/21/13 40/23/15 43/26/17 
f 40/27/15 41/28/16 43/29/23 
f 41/28/16 44/30/19 43/29/23 
f 38/31/13 42/32/22 39/33/14 
f 42/32/22 45/34/21 39/33/14 
f 46/35/21 47/36/22 48/37/19 
f 47/36/22 49/38/18 48/37/19 
f 50/27/23 51/28/16 49/29/18 
f 51/28/16 48/30/19 49/29/18 
f 52/31/13 47/32/22 53/33/14 
f 47/32/22 46/34/21 53/33/14 
f 54/35/21 55/36/22 56/37/19 
f 55/36/22 57/38/18 56/37/19 
f 55/25/22 58/21/24 57/26/18 
f 58/21/24 59/23/15 57/26/18 
f 58/21/25 60/22/25 59/23/15 
f 60/22/25 61/24/16 59/23/15 
f 54/35/21 56/37/19 61/24/16 
f 60/22/26 54/35/21 61/24/16 
f 59/27/15 61/28/16 57/29/18 
f 61/28/16 56/30/19 57/29/18 
f 58/31/24 55/32/22 60/33/20 
f 55/32/22 54/34/21 60/33/20 
f 34/36/27 35/38/18 36/37/19 
f 37/35/21 34/36/27 36/37/19 
f 37/35/21 36/37/19 33/24/16 
f 31/22/14 37/35/21 33/24/16 
f 42/36/22 43/38/27 44/37/19 
f 45/35/21 42/36/22 44/37/19 
f 45/35/21 44/37/19 41/24/16 
f 39/22/14 45/35/21 41/24/16 
f 46/35/21 48/37/19 51/24/16 
f 53/22/14 46/35/21 51/24/16 
f 53/22/14 51/24/16 50/23/25 
f 52/21/13 53/22/14 50/23/25 
f 47/25/22 52/21/13 49/26/18 
f 52/21/13 50/23/17 49/26/18 
# 0 polygons - 48 triangles

#
# object polySurface175__Stone_Lift00
#

v  -200.0000 -100.0000 -0.0000
v  -200.0000 100.0000 -0.0000
v  -100.0000 -100.0000 -0.0000
v  -100.0000 100.0000 -0.0000
v  100.0000 -100.0000 -0.0000
v  100.0000 100.0000 -0.0000
v  200.0000 -100.0000 -0.0000
v  200.0000 100.0000 -0.0000
v  100.0000 -200.0000 -0.0000
v  -100.0000 -200.0000 -0.0000
v  -100.0000 200.0000 -0.0000
v  100.0000 200.0000 -0.0000
v  -200.0000 100.0000 50.0000
v  -200.0000 -100.0000 50.0000
v  -100.0000 -200.0000 50.0000
v  100.0000 -200.0000 50.0000
v  200.0000 -100.0000 50.0000
v  200.0000 100.0000 50.0000
v  100.0000 200.0000 50.0000
v  -100.0000 200.0000 50.0000
# 20 vertices

vn -0.4485 0.0000 -0.8938
vn 0.0000 0.0000 -1.0000
vn 0.4485 0.0000 -0.8938
vn 0.0000 -0.4485 -0.8938
vn 0.0000 0.4485 -0.8938
vn -1.0000 0.0000 -0.0000
vn 0.0000 -1.0000 -0.0000
vn 1.0000 0.0000 -0.0000
vn 0.0000 1.0000 -0.0000
# 9 vertex normals

vt 0.0629 0.7471 0.0000
vt 0.0629 0.5044 0.0000
vt 0.1843 0.7471 0.0000
vt 0.1843 0.5044 0.0000
vt 0.1852 0.1310 0.0000
vt 0.1852 0.3729 0.0000
vt 0.0640 0.1303 0.0000
vt 0.0640 0.3729 0.0000
vt 0.0646 0.6236 0.0000
vt 0.0646 0.3809 0.0000
vt 0.1859 0.6236 0.0000
vt 0.1859 0.3809 0.0000
vt 0.1860 0.2463 0.0000
vt 0.0647 0.2463 0.0000
vt 0.1860 0.0037 0.0000
vt 0.0647 0.0037 0.0000
vt 0.0023 0.5044 0.0000
vt 0.0023 0.7471 0.0000
vt 0.0039 0.3809 0.0000
vt 0.0039 0.6236 0.0000
vt 0.0033 0.1303 0.0000
vt 0.0033 0.3729 0.0000
vt 0.0041 0.0037 0.0000
vt 0.0041 0.2463 0.0000
# 24 texture coords

o polySurface175__Stone_Lift00
g polySurface175__Stone_Lift00
usemtl Stone_Lift00
s 1
f 62/39/28 63/40/28 64/41/29 
f 63/40/28 65/42/29 64/41/29 
f 66/43/29 67/44/29 68/45/30 
f 67/44/29 69/46/30 68/45/30 
f 70/47/31 71/48/31 66/49/29 
f 71/48/31 64/50/29 66/49/29 
f 65/51/29 72/52/32 67/53/29 
f 72/52/32 73/54/32 67/53/29 
f 74/55/33 63/40/28 75/56/33 
f 63/40/28 62/39/28 75/56/33 
f 76/57/34 71/48/31 77/58/34 
f 71/48/31 70/47/31 77/58/34 
f 68/45/30 69/46/30 78/59/35 
f 69/46/30 79/60/35 78/59/35 
f 73/54/32 72/52/32 80/61/36 
f 72/52/32 81/62/36 80/61/36 
# 0 polygons - 16 triangles

