# 3ds Max Wavefront OBJ Exporter v0.97b - (c)2007 guruware
# File Created: 22.03.2020 14:17:35

mtllib MeganeStep001.mtl

#
# object SandWorldHomeMeganeStep001
#

v  0.0100 0.0015 0.0015
v  0.0100 -0.0015 0.0015
v  0.0100 -0.0015 -0.0015
v  0.0100 0.0015 -0.0015
v  0.0150 0.0150 -0.0150
v  0.0150 -0.0150 -0.0150
v  0.0150 0.0150 0.0150
v  0.0150 -0.0150 0.0150
v  0.0000 0.0000 -0.0000
# 9 vertices

vn 0.9820 -0.1337 -0.1337
vn 0.9820 0.1337 -0.1337
vn 0.9820 0.1337 0.1337
vn 0.9820 -0.1337 0.1337
vn 0.3126 0.6717 -0.6717
vn 0.3126 -0.6717 -0.6717
vn 0.3126 0.6717 0.6717
vn 0.3126 -0.6717 0.6717
vn -1.0000 0.0000 -0.0000
# 9 vertex normals

o SandWorldHomeMeganeStep001
g SandWorldHomeMeganeStep001
usemtl wire_255255000
s 1
f 1//1 2//2 3//3 4//4 
s 2
f 5//5 4//4 3//3 6//6 
s 4
f 7//7 1//1 4//4 5//5 
s 8
f 2//2 8//8 6//6 3//3 
s 16
f 1//1 7//7 8//8 2//2 
s 32
f 9//9 7//7 5//5 
s 64
f 9//9 5//5 6//6 
s 128
f 9//9 6//6 8//8 
s 256
f 9//9 8//8 7//7 
# 5 polygons - 4 triangles

#
# object Step001__BridgeIndSand00_rep
#

v  -194.9991 -745.0004 -95.0000
v  -194.9990 744.9998 -95.0000
v  195.0009 -745.0004 -95.0000
v  195.0010 744.9998 -95.0000
v  195.0010 744.9998 95.0000
v  195.0009 -745.0004 95.0000
v  -194.9991 -745.0004 95.0000
v  -194.9990 744.9998 95.0000
# 8 vertices

vn 0.0000 0.0000 -1.0000
vn 1.0000 0.0000 -0.0000
vn -1.0000 0.0000 -0.0000
vn 0.0000 -1.0000 -0.0000
vn 0.0000 1.0000 -0.0000
# 5 vertex normals

vt 1.0000 -7.5001 0.0000
vt 1.0000 7.4999 0.0000
vt -3.0000 -7.4999 0.0000
vt -3.0000 7.5001 0.0000
vt -5.0000 7.5001 0.0000
vt -5.0000 -7.4999 0.0000
vt 3.0000 -7.5001 0.0000
vt 3.0000 7.4999 0.0000
vt 1.0003 -1.0000 0.0000
vt 1.0003 1.0000 0.0000
vt -3.0000 -1.0000 0.0000
vt -3.0000 1.0000 0.0000
vt 0.9997 1.0000 0.0000
vt 0.9997 -1.0000 0.0000
# 14 texture coords

o Step001__BridgeIndSand00_rep
g Step001__BridgeIndSand00_rep
usemtl BridgeIndSand00_rep
s 1
f 10/1/10 11/2/10 12/3/10 
f 11/2/10 13/4/10 12/3/10 
f 13/4/11 14/5/11 12/3/11 
f 14/5/11 15/6/11 12/3/11 
f 10/1/12 16/7/12 11/2/12 
f 16/7/12 17/8/12 11/2/12 
f 16/9/13 10/10/13 15/11/13 
f 10/10/13 12/12/13 15/11/13 
f 11/12/14 17/11/14 13/13/14 
f 17/11/14 14/14/14 13/13/14 
# 0 polygons - 10 triangles

