# 3ds Max Wavefront OBJ Exporter v0.97b - (c)2007 guruware
# File Created: 22.03.2020 14:16:06

mtllib MeganeStep000.mtl

#
# object SandWorldHomeMeganeStep000
#

v  0.0100 0.0015 0.0015
v  0.0100 -0.0015 0.0015
v  0.0100 -0.0015 -0.0015
v  0.0100 0.0015 -0.0015
v  0.0150 0.0150 -0.0150
v  0.0150 -0.0150 -0.0150
v  0.0150 0.0150 0.0150
v  0.0150 -0.0150 0.0150
v  0.0000 0.0000 -0.0000
# 9 vertices

vn 0.9820 -0.1337 -0.1337
vn 0.9820 0.1337 -0.1337
vn 0.9820 0.1337 0.1337
vn 0.9820 -0.1337 0.1337
vn 0.3126 0.6717 -0.6717
vn 0.3126 -0.6717 -0.6717
vn 0.3126 0.6717 0.6717
vn 0.3126 -0.6717 0.6717
vn -1.0000 0.0000 -0.0000
# 9 vertex normals

o SandWorldHomeMeganeStep000
g SandWorldHomeMeganeStep000
usemtl wire_255255000
s 1
f 1//1 2//2 3//3 4//4 
s 2
f 5//5 4//4 3//3 6//6 
s 4
f 7//7 1//1 4//4 5//5 
s 8
f 2//2 8//8 6//6 3//3 
s 16
f 1//1 7//7 8//8 2//2 
s 32
f 9//9 7//7 5//5 
s 64
f 9//9 5//5 6//6 
s 128
f 9//9 6//6 8//8 
s 256
f 9//9 8//8 7//7 
# 5 polygons - 4 triangles

#
# object pCube24__BridgeIndSand00_rep
#

v  -295.0000 1495.0000 -45.0000
v  295.0000 1495.0000 -45.0000
v  -295.0000 -1495.0000 -45.0000
v  295.0000 -1495.0000 -45.0000
v  -295.0000 -1495.0000 45.0000
v  295.0000 -1495.0000 45.0000
v  -295.0000 1495.0000 45.0000
v  295.0000 1495.0000 45.0000
# 8 vertices

vn 0.0000 0.0000 -1.0000
vn 0.0000 0.0000 1.0000
vn 1.0000 0.0000 -0.0000
vn -1.0000 0.0000 -0.0000
# 4 vertex normals

vt 6.9998 15.0003 0.0000
vt 0.9999 14.9997 0.0000
vt 7.0001 -14.9997 0.0000
vt 1.0000 -15.0003 0.0000
vt -6.0001 -14.9997 0.0000
vt -0.0000 -15.0003 0.0000
vt -5.9999 15.0003 0.0000
vt -0.0000 14.9997 0.0000
vt -7.0001 -14.9997 0.0000
vt -6.9999 15.0003 0.0000
# 10 texture coords

o pCube24__BridgeIndSand00_rep
g pCube24__BridgeIndSand00_rep
usemtl BridgeIndSand00_rep
s 1
f 10/1/10 11/2/10 12/3/10 
f 11/2/10 13/4/10 12/3/10 
f 14/5/11 15/6/11 16/7/11 
f 15/6/11 17/8/11 16/7/11 
f 17/8/12 15/6/12 11/2/12 
f 15/6/12 13/4/12 11/2/12 
f 14/5/13 16/7/13 12/9/13 
f 16/7/13 10/10/13 12/9/13 
# 0 polygons - 8 triangles

