# 3ds Max Wavefront OBJ Exporter v0.97b - (c)2007 guruware
# File Created: 03.04.2020 13:54:18

mtllib QuickSand000.mtl

#
# object SandWorldHomeQuickSand000
#

v  0.0100 0.0015 0.0015
v  0.0100 -0.0015 0.0015
v  0.0100 -0.0015 -0.0015
v  0.0100 0.0015 -0.0015
v  0.0150 0.0150 -0.0150
v  0.0150 -0.0150 -0.0150
v  0.0150 0.0150 0.0150
v  0.0150 -0.0150 0.0150
v  0.0000 0.0000 -0.0000
# 9 vertices

vn 0.9820 -0.1337 -0.1337
vn 0.9820 0.1337 -0.1337
vn 0.9820 0.1337 0.1337
vn 0.9820 -0.1337 0.1337
vn 0.3126 0.6717 -0.6717
vn 0.3126 -0.6717 -0.6717
vn 0.3126 0.6717 0.6717
vn 0.3126 -0.6717 0.6717
vn -1.0000 0.0000 -0.0000
# 9 vertex normals

o SandWorldHomeQuickSand000
g SandWorldHomeQuickSand000
usemtl wire_255255000
s 1
f 1//1 2//2 3//3 4//4 
s 2
f 5//5 4//4 3//3 6//6 
s 4
f 7//7 1//1 4//4 5//5 
s 8
f 2//2 8//8 6//6 3//3 
s 16
f 1//1 7//7 8//8 2//2 
s 32
f 9//9 7//7 5//5 
s 64
f 9//9 5//5 6//6 
s 128
f 9//9 6//6 8//8 
s 256
f 9//9 8//8 7//7 
# 5 polygons - 4 triangles

#
# object suna__QuickSand00
#

v  1750.0000 850.0000 -0.0000
v  2849.9998 350.0000 -0.0000
v  1750.0000 350.0000 -0.0000
v  2850.0000 850.0000 -0.0000
v  1700.0000 790.0000 -0.0000
v  310.0000 790.0000 -0.0000
v  250.0000 849.9999 -0.0000
v  250.0000 1800.0000 -0.0000
v  1750.0000 1800.0000 -0.0000
v  250.0000 1850.0000 -0.0000
v  1750.0000 1850.0000 -0.0000
v  2850.0000 1800.0000 -0.0000
v  2910.0000 1850.0000 -0.0000
v  -50.0000 1800.0000 -0.0000
v  -1124.9849 1800.0000 -0.0000
v  -50.0000 1850.0000 -0.0000
v  -49.4418 850.0000 -0.0000
v  -1124.9849 850.0000 -0.0000
v  -1124.9849 1850.0000 -0.0000
v  2850.0000 -200.0000 -0.0000
v  1750.0000 -200.0000 -0.0000
v  -49.7733 -100.0000 -0.0000
v  -1124.9849 -100.0000 -0.0000
v  -50.0000 -750.0000 -0.0000
v  2850.0000 -850.0000 -0.0000
v  1750.0000 -850.0000 -0.0000
v  -1124.9849 -750.0000 -0.0000
v  1750.0000 -1295.3973 -0.0000
v  -110.0000 -800.0000 -0.0000
v  -1125.2268 -800.0000 -0.0000
v  2850.0000 -1304.5033 -0.0000
v  2850.0000 -1700.0000 -0.0000
v  1750.0000 -1700.0000 -0.0000
v  2910.0000 -1760.0000 -0.0000
v  1750.0000 -1760.0000 -0.0000
v  -2900.0000 1850.0000 -0.0000
v  -2850.0000 850.0000 -0.0000
v  -2900.0000 790.0000 -0.0000
v  249.5840 -100.0000 -0.0000
v  -1350.0000 1850.0000 -0.0000
v  -1350.0000 1800.0000 -0.0000
v  -1550.0000 1850.0000 -0.0000
v  -1350.0000 850.0000 -0.0000
v  -1550.0000 1800.0000 -0.0000
v  -1850.0000 1850.0000 -0.0000
v  -1349.9990 -100.0000 -0.0000
v  -1850.0000 1800.0000 -0.0000
v  -2100.0000 1850.0000 -0.0000
v  -1550.0000 850.0000 -0.0000
v  -1410.0000 790.0000 -0.0000
v  -1409.8602 -100.0000 -0.0000
v  -1550.0000 790.0000 -0.0000
v  -1850.0000 790.0000 -0.0000
v  -1350.0000 -750.0000 -0.0000
v  -1410.0000 -800.0000 -0.0000
v  -1850.0000 850.0000 -0.0000
v  -2100.0000 790.0000 -0.0000
v  -2100.0000 1800.0000 -0.0000
v  -2375.0000 1850.0000 -0.0000
v  -2100.0000 850.0000 -0.0000
v  -2375.0000 790.0000 -0.0000
v  -2375.0000 1800.0000 -0.0000
v  -2625.0000 1850.0000 -0.0000
v  -2375.0000 850.0000 -0.0000
v  -2625.0000 790.0000 -0.0000
v  -2625.0000 1800.0000 -0.0000
v  -2850.0000 1800.0000 -0.0000
v  -2625.0000 850.0000 -0.0000
v  2910.0000 -1305.0000 -0.0000
v  2910.0000 -850.0000 -0.0000
v  2910.0000 -200.0000 -0.0000
v  2909.9998 350.0000 -0.0000
v  2910.0000 850.0000 -0.0000
v  1700.0000 410.0000 -0.0000
v  1250.0000 350.0000 -0.0000
v  1250.0000 410.0000 -0.0000
v  749.9999 350.0000 -0.0000
v  690.0000 410.0000 -0.0000
v  690.0000 -200.0000 -0.0000
v  1250.0000 -200.0000 -0.0000
v  750.0000 -200.0000 -0.0000
v  690.0000 -790.0000 -0.0000
v  750.0000 -850.0000 -0.0000
v  1250.0000 -850.0000 -0.0000
v  1250.0000 -1290.8856 -0.0000
v  750.0000 -1287.1191 -0.0000
v  250.0000 -850.0000 -0.0000
v  310.0000 -790.0000 -0.0000
v  250.5531 -1282.9846 -0.0000
v  310.5807 -100.0000 -0.0000
v  -50.0000 -1280.4967 -0.0000
v  -110.0000 -1280.0000 -0.0000
v  -50.0000 -1700.0000 -0.0000
v  -110.0000 -1760.0000 -0.0000
v  251.1623 -1760.0000 -0.0000
v  251.0857 -1700.0000 -0.0000
v  750.0000 -1760.0000 -0.0000
v  750.0000 -1700.0000 -0.0000
v  1250.0000 -1760.0000 -0.0000
v  1250.0000 -1700.0000 -0.0000
# 100 vertices

vn -0.0244 0.0000 -0.9997
vn 0.0244 0.0092 -0.9997
vn 0.0000 0.0122 -0.9999
vn 0.0244 0.0061 -0.9997
vn 0.0000 0.0000 -1.0000
vn -0.0183 -0.0122 -0.9998
vn -0.0153 0.0000 -0.9999
vn -0.0122 0.0122 -0.9999
vn -0.0122 0.0000 -0.9999
vn 0.0000 0.0610 -0.9981
vn 0.1948 -0.1461 -0.9699
vn 0.1956 -0.1345 -0.9714
vn 0.0019 0.0000 -1.0000
vn 0.0244 0.0000 -0.9997
vn 0.0000 0.0061 -1.0000
vn -0.0061 0.0183 -0.9998
vn 0.0244 -0.0122 -0.9996
vn 0.0000 -0.0122 -0.9999
vn 0.0122 0.0000 -0.9999
vn -0.0244 0.0023 -0.9997
vn 0.0366 -0.0183 -0.9992
vn 0.0000 -0.0061 -1.0000
vn 0.0000 0.0092 -1.0000
vn 0.0122 0.0031 -0.9999
vn 0.0000 0.0153 -0.9999
vn -0.0122 0.0153 -0.9998
vn -0.0061 -0.0122 -0.9999
vn -0.0122 0.0061 -0.9999
vn -0.0061 0.0000 -1.0000
vn 0.0015 0.0122 -0.9999
vn 0.0019 -0.0122 -0.9999
vn 0.0061 -0.0122 -0.9999
# 32 vertex normals

vt 0.8004 0.3614 0.0000
vt 0.9897 0.4475 0.0000
vt 0.8004 0.4475 0.0000
vt 0.9897 0.3614 0.0000
vt 0.7917 0.3718 0.0000
vt 0.5525 0.3718 0.0000
vt 0.5422 0.3614 0.0000
vt 0.5422 0.1979 0.0000
vt 0.8004 0.1979 0.0000
vt 0.5422 0.1893 0.0000
vt 0.8004 0.1893 0.0000
vt 0.9897 0.1979 0.0000
vt 1.0000 0.1893 0.0000
vt 0.4905 0.1979 0.0000
vt 0.3055 0.1979 0.0000
vt 0.4905 0.1893 0.0000
vt 0.4906 0.3614 0.0000
vt 0.3055 0.3614 0.0000
vt 0.3055 0.1893 0.0000
vt 0.9897 0.5422 0.0000
vt 0.8004 0.5422 0.0000
vt 0.4906 0.5250 0.0000
vt 0.3055 0.5250 0.0000
vt 0.4905 0.6368 0.0000
vt 0.9897 0.6540 0.0000
vt 0.8004 0.6540 0.0000
vt 0.3055 0.6368 0.0000
vt 0.8004 0.7307 0.0000
vt 0.4802 0.6454 0.0000
vt 0.3055 0.6454 0.0000
vt 0.9897 0.7323 0.0000
vt 0.9897 0.8004 0.0000
vt 0.8004 0.8004 0.0000
vt 1.0000 0.8107 0.0000
vt 0.8004 0.8107 0.0000
vt 0.0000 0.1893 0.0000
vt 0.0086 0.3614 0.0000
vt 0.0000 0.3718 0.0000
vt 0.5421 0.5250 0.0000
vt 0.2668 0.1893 0.0000
vt 0.2668 0.1979 0.0000
vt 0.2324 0.1893 0.0000
vt 0.2668 0.3614 0.0000
vt 0.2324 0.1979 0.0000
vt 0.1807 0.1893 0.0000
vt 0.2668 0.5250 0.0000
vt 0.1807 0.1979 0.0000
vt 0.1377 0.1893 0.0000
vt 0.2324 0.3614 0.0000
vt 0.2565 0.3718 0.0000
vt 0.2565 0.5250 0.0000
vt 0.2324 0.3718 0.0000
vt 0.1807 0.3718 0.0000
vt 0.2668 0.6368 0.0000
vt 0.2565 0.6454 0.0000
vt 0.1807 0.3614 0.0000
vt 0.1377 0.3718 0.0000
vt 0.1377 0.1979 0.0000
vt 0.0904 0.1893 0.0000
vt 0.1377 0.3614 0.0000
vt 0.0904 0.3718 0.0000
vt 0.0904 0.1979 0.0000
vt 0.0473 0.1893 0.0000
vt 0.0904 0.3614 0.0000
vt 0.0473 0.3718 0.0000
vt 0.0473 0.1979 0.0000
vt 0.0086 0.1979 0.0000
vt 0.0473 0.3614 0.0000
vt 1.0000 0.7324 0.0000
vt 1.0000 0.6540 0.0000
vt 1.0000 0.5422 0.0000
vt 1.0000 0.4475 0.0000
vt 1.0000 0.3614 0.0000
vt 0.7917 0.4372 0.0000
vt 0.7143 0.4475 0.0000
vt 0.7143 0.4372 0.0000
vt 0.6282 0.4475 0.0000
vt 0.6179 0.4372 0.0000
vt 0.6179 0.5422 0.0000
vt 0.7143 0.5422 0.0000
vt 0.6282 0.5422 0.0000
vt 0.6179 0.6437 0.0000
vt 0.6282 0.6540 0.0000
vt 0.7143 0.6540 0.0000
vt 0.7143 0.7299 0.0000
vt 0.6282 0.7293 0.0000
vt 0.5422 0.6540 0.0000
vt 0.5525 0.6437 0.0000
vt 0.5423 0.7286 0.0000
vt 0.5526 0.5250 0.0000
vt 0.4905 0.7281 0.0000
vt 0.4802 0.7281 0.0000
vt 0.4905 0.8004 0.0000
vt 0.4802 0.8107 0.0000
vt 0.5424 0.8107 0.0000
vt 0.5424 0.8004 0.0000
vt 0.6282 0.8107 0.0000
vt 0.6282 0.8004 0.0000
vt 0.7143 0.8107 0.0000
vt 0.7143 0.8004 0.0000
# 100 texture coords

o suna__QuickSand00
g suna__QuickSand00
usemtl QuickSand00
s 1
f 10/1/10 11/2/11 12/3/12 
f 10/1/10 13/4/13 11/2/11 
f 10/1/10 14/5/14 15/6/15 
f 10/1/10 15/6/15 16/7/16 
f 10/1/10 17/8/16 18/9/17 
f 10/1/10 16/7/16 17/8/16 
f 10/1/10 18/9/17 13/4/13 
f 17/8/16 19/10/18 20/11/19 
f 17/8/16 20/11/19 18/9/17 
f 18/9/17 20/11/19 21/12/20 
f 18/9/17 21/12/14 13/4/13 
f 20/11/19 22/13/21 21/12/20 
f 23/14/22 24/15/14 25/16/22 
f 23/14/22 26/17/14 27/18/14 
f 23/14/22 27/18/14 24/15/14 
f 25/16/22 24/15/14 28/19/14 
f 11/2/11 29/20/23 12/3/12 
f 12/3/12 29/20/23 30/21/14 
f 31/22/14 27/18/14 26/17/14 
f 31/22/14 32/23/14 27/18/14 
f 31/22/14 33/24/24 32/23/14 
f 30/21/14 34/25/23 35/26/14 
f 30/21/14 29/20/23 34/25/23 
f 32/23/14 33/24/24 36/27/14 
f 35/26/14 34/25/23 37/28/14 
f 33/24/24 38/29/25 36/27/14 
f 38/29/25 39/30/12 36/27/14 
f 34/25/23 40/31/23 37/28/14 
f 40/31/23 41/32/26 42/33/27 
f 40/31/23 42/33/27 37/28/14 
f 43/34/14 44/35/14 41/32/26 
f 41/32/26 44/35/14 42/33/27 
f 45/36/14 46/37/10 47/38/14 
f 19/10/18 23/14/22 25/16/22 
f 17/8/16 23/14/22 19/10/18 
f 17/8/16 26/17/14 23/14/22 
f 16/7/16 26/17/14 17/8/16 
f 16/7/16 48/39/14 26/17/14 
f 48/39/14 31/22/14 26/17/14 
f 28/19/14 24/15/14 49/40/14 
f 24/15/14 50/41/28 49/40/14 
f 24/15/14 27/18/14 50/41/28 
f 49/40/14 50/41/28 51/42/14 
f 27/18/14 52/43/14 50/41/28 
f 27/18/14 32/23/14 52/43/14 
f 50/41/28 53/44/14 51/42/14 
f 50/41/28 52/43/14 53/44/14 
f 51/42/14 53/44/14 54/45/14 
f 32/23/14 55/46/29 52/43/14 
f 32/23/14 36/27/14 55/46/29 
f 53/44/14 56/47/14 54/45/14 
f 54/45/14 56/47/14 57/48/14 
f 53/44/14 52/43/14 58/49/14 
f 53/44/14 58/49/14 56/47/14 
f 55/46/29 59/50/30 52/43/14 
f 59/50/30 58/49/14 52/43/14 
f 55/46/29 60/51/14 59/50/30 
f 59/50/30 61/52/31 58/49/14 
f 61/52/31 62/53/14 58/49/14 
f 63/54/10 60/51/14 55/46/29 
f 36/27/14 63/54/10 55/46/29 
f 63/54/10 64/55/24 60/51/14 
f 39/30/12 63/54/10 36/27/14 
f 39/30/12 64/55/24 63/54/10 
f 58/49/14 62/53/14 65/56/14 
f 58/49/14 65/56/14 56/47/14 
f 62/53/14 66/57/14 65/56/14 
f 65/56/14 67/58/14 56/47/14 
f 57/48/14 56/47/14 67/58/14 
f 57/48/14 67/58/14 68/59/14 
f 65/56/14 66/57/14 69/60/14 
f 65/56/14 69/60/14 67/58/14 
f 70/61/14 69/60/14 66/57/14 
f 68/59/14 67/58/14 71/62/14 
f 71/62/14 67/58/14 69/60/14 
f 68/59/14 71/62/14 72/63/14 
f 73/64/14 69/60/14 70/61/14 
f 73/64/14 71/62/14 69/60/14 
f 73/64/14 70/61/14 74/65/24 
f 72/63/14 71/62/14 75/66/14 
f 75/66/14 71/62/14 73/64/14 
f 72/63/14 75/66/14 76/67/10 
f 72/63/14 76/67/10 45/36/14 
f 76/67/10 46/37/10 45/36/14 
f 46/37/10 74/65/24 47/38/14 
f 75/66/14 77/68/14 76/67/10 
f 76/67/10 77/68/14 46/37/10 
f 75/66/14 73/64/14 77/68/14 
f 77/68/14 74/65/24 46/37/10 
f 73/64/14 74/65/24 77/68/14 
f 78/69/14 43/34/14 41/32/26 
f 78/69/14 41/32/26 40/31/23 
f 79/70/14 78/69/14 40/31/23 
f 79/70/14 40/31/23 34/25/23 
f 29/20/23 79/70/14 34/25/23 
f 80/71/14 79/70/14 29/20/23 
f 11/2/11 80/71/14 29/20/23 
f 11/2/11 81/72/32 80/71/14 
f 82/73/14 81/72/32 11/2/11 
f 13/4/13 82/73/14 11/2/11 
f 21/12/14 82/73/14 13/4/13 
f 21/12/14 22/13/14 82/73/14 
f 10/1/10 12/3/12 14/5/14 
f 14/5/14 12/3/12 83/74/33 
f 83/74/33 12/3/12 84/75/34 
f 83/74/33 84/75/34 85/76/14 
f 12/3/12 30/21/14 84/75/34 
f 85/76/14 84/75/34 86/77/35 
f 85/76/14 86/77/35 87/78/24 
f 86/77/35 88/79/14 87/78/24 
f 84/75/34 30/21/14 89/80/14 
f 86/77/35 90/81/18 88/79/14 
f 86/77/35 84/75/34 90/81/18 
f 84/75/34 89/80/14 90/81/18 
f 90/81/18 91/82/36 88/79/14 
f 30/21/14 35/26/14 89/80/14 
f 90/81/18 92/83/37 91/82/36 
f 90/81/18 89/80/14 92/83/37 
f 89/80/14 35/26/14 93/84/14 
f 89/80/14 93/84/14 92/83/37 
f 35/26/14 94/85/14 93/84/14 
f 35/26/14 37/28/14 94/85/14 
f 93/84/14 95/86/38 92/83/37 
f 93/84/14 94/85/14 95/86/38 
f 91/82/36 92/83/37 96/87/39 
f 97/88/14 91/82/36 96/87/39 
f 92/83/37 95/86/38 98/89/14 
f 92/83/37 98/89/14 96/87/39 
f 97/88/14 96/87/39 48/39/14 
f 99/90/14 97/88/14 48/39/14 
f 15/6/15 99/90/14 48/39/14 
f 15/6/15 48/39/14 16/7/16 
f 48/39/14 96/87/39 33/24/24 
f 48/39/14 33/24/24 31/22/14 
f 33/24/24 96/87/39 100/91/22 
f 96/87/39 98/89/14 100/91/22 
f 33/24/24 100/91/22 38/29/25 
f 38/29/25 100/91/22 101/92/14 
f 101/92/14 100/91/22 102/93/40 
f 100/91/22 98/89/14 102/93/40 
f 101/92/14 102/93/40 103/94/41 
f 102/93/40 104/95/14 103/94/41 
f 102/93/40 98/89/14 105/96/27 
f 102/93/40 105/96/27 104/95/14 
f 98/89/14 95/86/38 105/96/27 
f 104/95/14 105/96/27 106/97/38 
f 105/96/27 95/86/38 107/98/36 
f 105/96/27 107/98/36 106/97/38 
f 94/85/14 107/98/36 95/86/38 
f 108/99/14 106/97/38 107/98/36 
f 94/85/14 109/100/27 107/98/36 
f 109/100/27 108/99/14 107/98/36 
f 94/85/14 37/28/14 109/100/27 
f 44/35/14 108/99/14 109/100/27 
f 37/28/14 42/33/27 109/100/27 
f 42/33/27 44/35/14 109/100/27 
# 0 polygons - 156 triangles

