# 3ds Max Wavefront OBJ Exporter v0.97b - (c)2007 guruware
# File Created: 03.04.2020 14:16:16

mtllib VisibleParts000.mtl

#
# object SandWorldHomeVisibleParts000
#

v  0.0100 0.0015 0.0015
v  0.0100 -0.0015 0.0015
v  0.0100 -0.0015 -0.0015
v  0.0100 0.0015 -0.0015
v  0.0150 0.0150 -0.0150
v  0.0150 -0.0150 -0.0150
v  0.0150 0.0150 0.0150
v  0.0150 -0.0150 0.0150
v  0.0000 0.0000 -0.0000
# 9 vertices

vn 0.9820 -0.1337 -0.1337
vn 0.9820 0.1337 -0.1337
vn 0.9820 0.1337 0.1337
vn 0.9820 -0.1337 0.1337
vn 0.3126 0.6717 -0.6717
vn 0.3126 -0.6717 -0.6717
vn 0.3126 0.6717 0.6717
vn 0.3126 -0.6717 0.6717
vn -1.0000 0.0000 -0.0000
# 9 vertex normals

o SandWorldHomeVisibleParts000
g SandWorldHomeVisibleParts000
usemtl wire_255255000
s 1
f 1//1 2//2 3//3 4//4 
s 2
f 5//5 4//4 3//3 6//6 
s 4
f 7//7 1//1 4//4 5//5 
s 8
f 2//2 8//8 6//6 3//3 
s 16
f 1//1 7//7 8//8 2//2 
s 32
f 9//9 7//7 5//5 
s 64
f 9//9 5//5 6//6 
s 128
f 9//9 6//6 8//8 
s 256
f 9//9 8//8 7//7 
# 5 polygons - 4 triangles

#
# object pCylinder2__BlockStoneBase02
#

v  -983.6987 171.1508 -49.8852
v  -995.0822 163.7700 -47.7289
v  -993.3633 172.5454 -45.0621
v  -983.2065 173.2777 -109.7576
v  -992.5806 175.2085 -115.6472
v  -993.3231 171.5310 -110.0948
v  -993.3983 171.1582 -106.8629
v  -991.0676 184.2645 -50.2239
v  -986.3109 208.5484 -49.9703
v  -976.9402 206.5918 -50.0296
v  -991.4456 130.5262 -50.0000
v  -1001.3389 131.8286 -50.0000
v  -994.2222 167.0777 -103.0244
v  -984.8517 163.7074 -100.0991
v  -986.0882 156.5134 -92.8388
v  -995.9720 158.4106 -93.6735
v  -997.5013 150.8361 -79.6553
v  -987.9634 148.0052 -79.2178
v  -983.1989 173.3379 -123.2408
v  -992.5806 175.2085 -123.3324
v  -707.1072 707.1072 -177.1627
v  -714.1633 714.1631 -176.7227
v  -715.4841 697.4905 -151.3893
v  -723.0026 704.0839 -151.3893
v  -716.6940 696.1109 -124.0386
v  -724.2123 702.7044 -124.0386
v  -707.1072 707.1072 -108.8118
v  -714.1633 714.1631 -109.2726
v  -707.2229 706.9915 -63.6399
v  -714.1633 714.1631 -63.6399
v  -714.1633 714.1631 -267.7783
v  -707.3384 706.8761 -268.2162
v  -721.6083 705.6738 -304.6565
v  -714.1096 699.0559 -304.2374
v  -727.1865 684.0203 -325.9004
v  -734.7675 690.6686 -325.9004
v  -733.3893 676.9473 -350.0000
v  -740.9702 683.5956 -350.0000
v  -974.6193 217.7105 -60.5714
v  -983.8947 219.6248 -60.4529
v  -973.4790 221.0966 -74.7914
v  -983.0720 223.6415 -74.7839
v  -991.4456 130.5262 -58.1099
v  -1001.3389 131.8286 -58.1099
v  -977.5665 203.8584 -148.6394
v  -986.8226 205.9185 -148.7369
v  -960.4598 305.7588 -110.6443
v  -960.3016 306.2231 -148.7369
v  -950.8951 303.5281 -111.0766
v  -950.8408 303.6896 -148.7171
v  -701.2305 725.5048 -50.0001
v  -694.3022 718.3368 -50.0001
v  -999.2105 142.3703 -66.8549
v  -989.8578 138.7637 -65.0382
v  -988.8654 143.9127 -69.3688
v  -998.5657 145.5639 -76.9712
v  -965.9265 258.8191 -148.7110
v  -975.5652 261.4017 -148.7628
v  -965.9265 258.8191 -96.6709
v  -975.5652 261.4017 -96.7226
# 60 vertices

vn -0.3840 0.3367 -0.8598
vn -0.1588 0.8321 0.5313
vn -0.1708 0.9792 0.1098
vn -0.4583 -0.2811 -0.8432
vn 0.0183 -0.0015 -0.9998
vn -0.1160 0.0549 -0.9917
vn 0.0488 0.7063 0.7063
vn 0.0550 0.7098 0.7022
vn 0.0427 0.6988 0.7140
vn 0.1282 0.7980 0.5889
vn 0.1220 0.7933 0.5965
vn 0.1037 0.8355 0.5397
vn 0.0915 0.8343 0.5437
vn 0.1955 0.9807 0.0023
vn 0.6172 0.6417 0.4553
vn 0.6583 0.7498 0.0663
vn 0.6583 0.7497 0.0671
vn 0.4951 0.5074 -0.7053
vn 0.7192 0.6948 -0.0019
vn 0.7132 0.7010 0.0023
vn 0.7192 0.6948 -0.0015
vn 0.7108 0.6985 -0.0827
vn 0.7072 0.7011 -0.0914
vn 0.6657 0.6901 -0.2840
vn 0.4954 0.5382 -0.6819
vn 0.6151 0.7003 -0.3623
vn -0.1464 -0.6635 -0.7337
vn -0.2257 -0.9393 -0.2585
vn 0.1282 0.9918 -0.0000
vn 0.1222 0.6200 0.7750
vn 0.1221 0.6196 0.7753
vn -0.2440 -0.9698 -0.0076
vn 0.4456 0.4334 -0.7833
vn -0.0061 0.8666 0.4989
vn -0.0244 0.8473 0.5305
vn -0.0427 0.8273 0.5602
vn -0.0061 0.0031 1.0000
vn -0.0061 0.0015 1.0000
vn -0.0855 -0.2747 -0.9577
vn -0.1038 -0.3725 -0.9222
vn -0.1281 -0.4789 -0.8685
# 41 vertex normals

vt 2.7910 -1.0254 0.0000
vt 2.7793 -1.0137 0.0000
vt 2.7773 -1.0273 0.0000
vt 2.6738 -1.0332 0.0000
vt 2.6621 -1.0254 0.0000
vt 2.6621 -1.0332 0.0000
vt 2.6621 -1.0371 0.0000
vt 2.7852 -1.0469 0.0000
vt 2.4473 -1.1406 0.0000
vt 2.4590 -1.1387 0.0000
vt 2.4355 -1.1016 0.0000
vt 2.4453 -1.0820 0.0000
vt 2.4082 -1.0313 0.0000
vt 2.4277 -1.0703 0.0000
vt 2.3965 -1.0313 0.0000
vt 2.6738 -1.0313 0.0000
vt 2.6875 -1.0371 0.0000
vt 2.6758 -1.0254 0.0000
vt 2.6914 -1.0215 0.0000
vt 2.7773 -1.1582 0.0000
vt 2.7793 -1.1484 0.0000
vt 2.7617 -1.1582 0.0000
vt 2.7656 -1.1426 0.0000
vt 2.6387 -1.1309 0.0000
vt 2.6367 -1.1484 0.0000
vt 2.6523 -1.1309 0.0000
vt 2.6504 -1.1484 0.0000
vt 2.6738 -1.0156 0.0000
vt 2.6621 -1.0156 0.0000
vt 2.5527 -1.0781 0.0000
vt 2.5410 -1.0801 0.0000
vt 2.5391 -1.1172 0.0000
vt 2.5293 -1.1172 0.0000
vt 2.5371 -1.1582 0.0000
vt 2.5273 -1.1582 0.0000
vt 2.6641 -1.1309 0.0000
vt 2.6523 -1.1406 0.0000
vt 2.6777 -1.1484 0.0000
vt 2.6680 -1.1582 0.0000
vt 2.7207 -1.1543 0.0000
vt 2.7207 -1.1387 0.0000
vt 2.7188 -1.1543 0.0000
vt 2.7188 -1.1387 0.0000
vt 2.5156 -1.1582 0.0000
vt 2.5254 -1.1582 0.0000
vt 2.5156 -1.0234 0.0000
vt 2.5273 -1.0234 0.0000
vt 2.5645 -1.1582 0.0000
vt 2.5742 -1.1582 0.0000
vt 2.5527 -1.1035 0.0000
vt 2.5645 -1.1035 0.0000
vt 2.6172 -1.1250 0.0000
vt 2.6250 -1.1582 0.0000
vt 2.6055 -1.1367 0.0000
vt 2.5938 -1.1582 0.0000
vt 2.5859 -1.1230 0.0000
vt 2.5840 -1.1582 0.0000
vt 2.5742 -1.1230 0.0000
vt 2.4609 -1.1484 0.0000
vt 2.4492 -1.1504 0.0000
vt 2.6895 -1.1660 0.0000
vt 2.6895 -1.1484 0.0000
vt 2.6777 -1.1660 0.0000
vt 2.7012 -1.1387 0.0000
vt 2.7012 -1.1289 0.0000
vt 2.6895 -1.1387 0.0000
vt 2.6895 -1.1289 0.0000
vt 2.3594 -1.1582 0.0000
vt 2.3652 -1.1250 0.0000
vt 2.3477 -1.1563 0.0000
vt 2.3555 -1.1211 0.0000
vt 2.4922 -1.1250 0.0000
vt 2.3945 -0.9785 0.0000
vt 2.5039 -1.1211 0.0000
vt 2.4004 -1.0000 0.0000
vt 0.8984 -1.3516 0.0000
vt 0.9170 -1.3691 0.0000
vt 0.9087 -1.3418 0.0000
vt 0.9268 -1.3574 0.0000
vt 2.7012 -1.1465 0.0000
vt 2.7148 -1.1484 0.0000
vt 2.7168 -1.1426 0.0000
vt 2.7031 -1.1328 0.0000
vt 2.7188 -1.1289 0.0000
vt 2.7051 -1.1289 0.0000
vt 2.3809 -1.0566 0.0000
vt 2.3691 -1.0527 0.0000
vt 2.4863 -1.0684 0.0000
vt 2.4746 -1.0723 0.0000
vt 2.4648 -1.0215 0.0000
vt 2.4766 -1.0195 0.0000
# 91 texture coords

o pCylinder2__BlockStoneBase02
g pCylinder2__BlockStoneBase02
usemtl BlockStoneBase02
s 1
f 10/1/10 11/2/10 12/3/10 
f 13/4/11 14/5/11 15/6/11 
f 16/7/12 13/4/12 15/6/12 
f 17/8/13 10/1/13 12/3/13 
f 18/9/14 19/10/14 17/11/14 
f 19/10/14 10/12/14 17/11/14 
f 10/12/15 20/13/15 11/14/15 
f 20/13/15 21/15/15 11/14/15 
f 22/16/16 23/17/17 16/18/18 
f 23/17/17 13/19/16 16/18/18 
f 24/20/19 23/21/17 25/22/20 
f 23/21/17 22/23/16 25/22/20 
f 25/24/20 26/25/21 24/26/19 
f 26/25/21 27/27/22 24/26/19 
f 13/4/23 28/28/23 14/5/23 
f 28/28/23 29/29/23 14/5/23 
f 30/30/24 31/31/24 32/32/24 
f 31/31/24 33/33/24 32/32/24 
f 34/34/25 32/32/26 35/35/25 
f 32/32/26 33/33/26 35/35/25 
f 34/36/27 35/37/27 36/38/27 
f 35/37/27 37/39/27 36/38/27 
f 38/40/28 36/41/29 39/42/28 
f 36/41/29 37/43/29 39/42/28 
f 31/44/30 30/45/30 40/46/31 
f 30/45/30 41/47/32 40/46/31 
f 40/48/31 41/49/32 42/50/33 
f 41/49/32 43/51/33 42/50/33 
f 43/25/34 44/52/34 42/53/34 
f 44/52/34 45/54/34 42/53/34 
f 44/55/35 46/56/35 45/57/35 
f 46/56/35 47/58/35 45/57/35 
f 48/59/36 19/10/36 49/60/36 
f 19/10/36 18/9/36 49/60/36 
f 50/61/37 48/62/37 51/63/37 
f 48/62/37 49/38/37 51/63/37 
f 20/64/38 52/65/38 21/66/38 
f 52/65/38 53/67/38 21/66/38 
f 28/68/39 54/69/40 29/70/39 
f 54/69/40 55/71/40 29/70/39 
f 56/72/41 57/73/41 58/74/41 
f 57/73/41 59/75/41 58/74/41 
f 39/76/42 60/77/42 38/78/42 
f 60/77/42 61/79/42 38/78/42 
f 62/80/43 63/81/43 64/82/44 
f 65/83/45 62/80/43 64/82/44 
f 65/83/45 64/82/44 27/84/22 
f 26/85/21 65/83/45 27/84/22 
f 57/73/46 66/86/46 59/75/46 
f 57/73/46 67/87/46 66/86/46 
f 66/86/46 67/87/46 55/71/47 
f 66/86/46 55/71/47 54/69/47 
f 58/74/48 68/88/49 56/72/48 
f 68/88/49 69/89/49 56/72/48 
f 68/88/49 51/90/50 69/89/49 
f 68/88/49 50/91/50 51/90/50 
# 0 polygons - 56 triangles

#
# object pCylinder2__ReliefStoneCross01
#

v  -975.5652 261.4017 349.5229
v  -975.5652 261.4017 300.0000
v  -1001.3389 131.8286 349.5229
v  -1001.3389 131.8286 300.0000
v  -993.3633 172.5454 -45.0621
v  -1009.9796 -0.0001 349.5229
v  -1001.3389 131.8286 -50.0000
v  -1009.9796 -0.0001 300.0000
v  -1009.9796 -0.0001 -50.0000
v  -1001.3389 131.8286 -58.1099
v  -1001.3391 -131.8289 300.0000
v  -1001.3391 -131.8289 349.5229
v  -1009.9796 -0.0001 -104.1943
v  -1001.3391 -131.8289 -102.9662
v  -975.5653 -261.4021 -100.0000
v  -975.5653 -261.4021 300.0000
v  -975.5653 -261.4021 349.7614
v  -967.0715 -286.4244 300.0000
v  -967.0715 -286.4244 -100.0000
v  -967.0715 -286.4244 350.0000
v  -995.0822 163.7700 -47.7289
v  -986.3109 208.5484 -49.9703
v  -991.0676 184.2645 -50.2239
v  -975.5652 261.4017 -49.7845
v  -983.8947 219.6248 -60.4529
v  -983.0720 223.6415 -74.7839
v  -975.5652 261.4017 -96.7226
v  -991.4456 130.5262 -58.1099
v  -989.8578 138.7637 -65.0382
v  -999.2105 142.3703 -66.8549
v  -967.0715 -286.4244 -300.0000
v  -975.5653 -261.4021 -300.0000
v  -975.5653 -261.4021 -350.0000
v  -967.0715 -286.4244 -350.0000
v  -1001.3391 -131.8289 -300.0000
v  -1001.3391 -131.8289 -350.0000
v  -1009.9796 -0.0001 -300.0000
v  -1009.9796 -0.0001 -350.0000
v  -1001.3389 131.8286 -350.0000
v  -1001.3389 131.8286 -300.0000
v  -975.5652 261.4017 -350.0000
v  -1001.3389 131.8286 -148.7369
v  -1001.3389 131.8286 -103.8516
v  -998.5657 145.5639 -76.9712
v  -997.5013 150.8361 -79.6553
v  -995.9720 158.4106 -93.6735
v  -994.2222 167.0777 -103.0244
v  -993.3231 171.5310 -110.0948
v  -993.3983 171.1582 -106.8629
v  -992.5806 175.2085 -123.3324
v  -992.5806 175.2085 -115.6472
v  -986.8226 205.9185 -148.7369
v  -975.5652 261.4017 -300.0000
v  -975.5652 261.4017 -148.7628
v  -933.0993 386.5022 -350.0000
v  -960.3016 306.2231 -148.7369
v  -933.0993 386.5022 -300.0000
v  -933.0993 386.5022 349.5229
v  -933.0993 386.5022 300.0000
v  -874.6677 504.9896 349.5229
v  -960.4598 305.7588 -110.6443
v  -874.6677 504.9896 300.0000
v  -801.2706 614.8364 349.5229
v  -933.0993 386.5022 -49.8922
v  -933.0993 386.5022 -148.7369
v  -874.6677 504.9896 -50.2438
v  -874.6677 504.9896 -150.9724
v  -874.6677 504.9896 -349.7980
v  -801.2706 614.8364 -49.7442
v  -874.6677 504.9896 -300.0000
v  -801.2706 614.8364 -300.0000
v  -801.2706 614.8364 -349.9177
v  -740.9702 683.5956 -350.0000
v  -734.7675 690.6686 -325.9004
v  -721.6083 705.6738 -304.6565
v  -801.2706 614.8364 -246.5753
v  -714.1633 714.1631 -267.7783
v  -714.1633 714.1631 -176.7227
v  -801.2706 614.8364 -150.9256
v  -723.0026 704.0839 -151.3893
v  -724.2123 702.7044 -124.0386
v  -714.1633 714.1631 -63.6399
v  -714.1633 714.1631 -109.2726
v  -714.1633 714.1631 -50.1495
v  -701.2305 725.5048 -50.0001
v  -701.2305 725.5048 300.0000
v  -714.1633 714.1631 300.0000
v  -714.1633 714.1631 349.7614
v  -701.2305 725.5048 350.0000
v  -801.2707 614.8364 300.0000
# 90 vertices

vn -0.9657 0.2598 -0.0000
vn -0.9626 0.2711 -0.0000
vn -0.9913 0.1316 -0.0000
vn -0.9933 0.1158 -0.0000
vn -0.9811 0.1935 -0.0000
vn -1.0000 0.0000 -0.0000
vn -0.9966 0.0825 -0.0000
vn -1.0000 -0.0020 -0.0000
vn -1.0000 -0.0078 -0.0000
vn -0.9975 0.0704 -0.0000
vn -0.9911 -0.1331 -0.0000
vn -0.9913 -0.1316 -0.0000
vn -0.9997 -0.0234 -0.0000
vn -0.9905 -0.1376 -0.0000
vn -0.9763 -0.2166 -0.0000
vn -0.9471 -0.3208 -0.0000
vn -0.9814 0.1920 -0.0000
vn -0.9808 0.1949 -0.0000
vn -0.9532 0.3024 -0.0000
vn -0.9802 0.1979 -0.0099
vn -0.9597 0.2812 -0.0000
vn 0.0855 0.6287 0.7729
vn -0.9998 -0.0195 -0.0000
vn -0.9903 0.1391 -0.0000
vn -0.9959 0.0901 -0.0000
vn -0.9802 0.1979 -0.0000
vn -0.9808 0.1949 0.0038
vn -0.9664 0.2569 -0.0000
vn -0.9229 0.3850 -0.0000
vn -0.9471 0.3208 -0.0000
vn -0.9218 0.3876 -0.0000
vn -0.8673 0.4978 -0.0000
vn -0.7926 0.6097 -0.0000
vn -0.9196 0.3928 -0.0000
vn -0.8767 0.4810 -0.0000
vn -0.8714 0.4906 -0.0000
vn -0.8137 0.5812 -0.0000
vn -0.8058 0.5922 -0.0000
vn -0.7514 0.6598 -0.0000
vn -0.8007 0.5990 -0.0000
vn -0.7874 0.6165 -0.0000
vn -0.7399 0.6727 -0.0000
vn -0.6598 0.7514 -0.0000
# 43 vertex normals

vt 2.8848 0.0000 0.0000
vt 2.8848 0.1245 0.0000
vt 2.5566 0.0000 0.0000
vt 2.5566 0.1240 0.0000
vt 2.6602 0.9823 0.0000
vt 2.2266 0.0000 0.0000
vt 2.5586 1.0000 0.0000
vt 2.2266 0.1240 0.0000
vt 2.2266 0.9981 0.0000
vt 2.5586 1.0173 0.0000
vt 1.8965 0.1240 0.0000
vt 1.8955 0.0000 0.0000
vt 2.2285 1.1334 0.0000
vt 1.8975 1.1309 0.0000
vt 1.5664 1.1240 0.0000
vt 1.5664 0.1240 0.0000
vt 1.5664 0.0000 0.0000
vt 1.5010 0.1240 0.0000
vt 1.5010 1.1240 0.0000
vt 1.5010 0.0000 0.0000
vt 2.6367 0.9891 0.0000
vt 2.7500 1.0000 0.0000
vt 2.6895 0.9949 0.0000
vt 2.8828 1.0000 0.0000
vt 2.7773 1.0244 0.0000
vt 2.7871 1.0538 0.0000
vt 2.8828 1.1086 0.0000
vt 2.7617 -1.1543 0.0000
vt 2.7637 -1.1426 0.0000
vt 2.7480 -1.1523 0.0000
vt 2.7520 -1.1387 0.0000
vt 1.5000 1.6240 0.0000
vt 1.5664 1.6240 0.0000
vt 1.5664 1.7495 0.0000
vt 1.5000 1.7490 0.0000
vt 1.8975 1.6245 0.0000
vt 1.8975 1.7500 0.0000
vt 2.2266 1.6245 0.0000
vt 2.2266 1.7500 0.0000
vt 2.5566 1.7500 0.0000
vt 2.5586 1.6255 0.0000
vt 2.8867 1.7500 0.0000
vt 2.5586 1.2500 0.0000
vt 2.5586 1.1333 0.0000
vt 2.5859 1.0395 0.0000
vt 2.5938 1.0651 0.0000
vt 2.6074 1.0720 0.0000
vt 2.6270 1.1075 0.0000
vt 2.6504 1.1311 0.0000
vt 2.6621 1.1495 0.0000
vt 2.6602 1.1411 0.0000
vt 2.6699 1.1842 0.0000
vt 2.6699 1.1641 0.0000
vt 2.7461 1.2490 0.0000
vt 2.8867 1.6255 0.0000
vt 2.8848 1.2490 0.0000
vt 3.2148 1.7500 0.0000
vt 3.0000 1.2490 0.0000
vt 3.2148 1.6250 0.0000
vt 3.2148 0.0000 0.0000
vt 3.2148 0.1240 0.0000
vt 3.5449 0.0000 0.0000
vt 3.0000 1.1470 0.0000
vt 3.5449 0.1240 0.0000
vt 3.8750 0.0000 0.0000
vt 3.2129 0.9983 0.0000
vt 3.2129 1.2472 0.0000
vt 3.5449 0.9996 0.0000
vt 3.5449 1.2517 0.0000
vt 3.5449 1.7490 0.0000
vt 3.8750 0.9984 0.0000
vt 3.5449 1.6245 0.0000
vt 3.8750 1.6240 0.0000
vt 3.8750 1.7495 0.0000
vt 4.1016 1.7490 0.0000
vt 4.1250 1.6885 0.0000
vt 4.1758 1.6353 0.0000
vt 3.8750 1.4905 0.0000
vt 4.2031 1.5430 0.0000
vt 4.2031 1.3157 0.0000
vt 3.8750 1.2512 0.0000
vt 4.1719 1.2522 0.0000
vt 4.1680 1.1841 0.0000
vt 4.2031 1.0336 0.0000
vt 4.2031 1.1471 0.0000
vt 4.2031 0.9999 0.0000
vt 4.2461 1.0001 0.0000
vt 4.2461 0.1255 0.0000
vt 4.2031 0.1245 0.0000
vt 4.2031 0.0005 0.0000
vt 4.2461 0.0005 0.0000
vt 3.8750 0.1240 0.0000
# 92 texture coords

o pCylinder2__ReliefStoneCross01
g pCylinder2__ReliefStoneCross01
usemtl ReliefStoneCross01
s 1
f 70/92/51 71/93/52 72/94/53 
f 71/93/52 73/95/54 72/94/53 
f 71/93/52 74/96/55 73/95/54 
f 72/94/53 73/95/54 75/97/56 
f 74/96/55 76/98/57 73/95/54 
f 73/95/54 77/99/58 75/97/56 
f 73/95/54 76/98/57 78/100/59 
f 73/95/54 78/100/59 77/99/58 
f 76/98/57 79/101/60 78/100/59 
f 75/97/56 77/99/58 80/102/61 
f 77/99/58 78/100/59 80/102/61 
f 75/97/56 80/102/61 81/103/62 
f 78/100/59 82/104/63 83/105/64 
f 78/100/59 83/105/64 80/102/61 
f 80/102/61 83/105/64 84/106/65 
f 80/102/61 85/107/65 81/103/62 
f 80/102/61 84/106/65 85/107/65 
f 81/103/62 85/107/65 86/108/65 
f 85/107/65 84/106/65 87/109/66 
f 85/107/65 87/109/66 86/108/65 
f 84/106/65 88/110/66 87/109/66 
f 86/108/65 87/109/66 89/111/66 
f 74/96/55 90/112/67 76/98/57 
f 91/113/68 92/114/67 74/96/55 
f 93/115/69 94/116/70 91/113/68 
f 95/117/68 94/116/70 93/115/69 
f 96/118/71 95/117/68 93/115/69 
f 97/119/72 98/120/72 79/121/72 
f 98/120/72 99/122/72 79/121/72 
f 84/106/65 100/123/66 88/110/66 
f 84/106/65 101/124/65 100/123/66 
f 83/105/64 101/124/65 84/106/65 
f 100/123/66 102/125/65 103/126/66 
f 101/124/65 102/125/65 100/123/66 
f 83/105/64 104/127/62 101/124/65 
f 101/124/65 104/127/62 102/125/65 
f 105/128/62 102/125/65 104/127/62 
f 83/105/64 82/104/63 104/127/62 
f 105/128/62 104/127/62 106/129/73 
f 104/127/62 82/104/63 106/129/73 
f 107/130/56 105/128/62 106/129/73 
f 108/131/53 107/130/56 106/129/73 
f 78/100/59 79/101/60 82/104/63 
f 109/132/74 108/131/53 106/129/73 
f 110/133/51 108/131/53 109/132/74 
f 106/129/73 82/104/63 111/134/53 
f 109/132/74 106/129/73 111/134/53 
f 79/101/60 112/135/75 82/104/63 
f 112/135/75 111/134/53 82/104/63 
f 79/101/60 99/136/76 113/137/76 
f 79/101/60 113/137/76 112/135/75 
f 113/137/76 114/138/76 115/139/76 
f 113/137/76 115/139/76 112/135/75 
f 116/140/76 112/135/75 115/139/76 
f 117/141/76 116/140/76 118/142/76 
f 117/141/76 112/135/75 116/140/76 
f 119/143/77 112/135/75 117/141/76 
f 119/143/77 117/141/76 120/144/76 
f 119/143/77 111/134/53 112/135/75 
f 121/145/68 111/134/53 119/143/77 
f 121/145/68 109/132/74 111/134/53 
f 121/145/68 122/146/51 109/132/74 
f 110/133/51 109/132/74 122/146/51 
f 123/147/78 122/146/51 121/145/68 
f 124/148/79 110/133/51 122/146/51 
f 125/149/80 122/146/51 123/147/78 
f 126/150/81 124/148/79 122/146/51 
f 125/149/80 126/150/81 122/146/51 
f 71/93/52 91/113/68 74/96/55 
f 93/115/69 91/113/68 71/93/52 
f 127/151/79 71/93/52 70/92/51 
f 128/152/79 71/93/52 127/151/79 
f 128/152/79 93/115/69 71/93/52 
f 128/152/79 127/151/79 129/153/82 
f 130/154/80 96/118/71 93/115/69 
f 128/152/79 129/153/82 131/155/82 
f 132/156/83 131/155/82 129/153/82 
f 133/157/81 93/115/69 128/152/79 
f 133/157/81 130/154/80 93/115/69 
f 133/157/81 128/152/79 131/155/82 
f 133/157/81 134/158/84 130/154/80 
f 130/154/80 134/158/84 125/149/80 
f 134/158/84 126/150/81 125/149/80 
f 135/159/82 134/158/84 133/157/81 
f 135/159/82 133/157/81 131/155/82 
f 134/158/84 136/160/85 126/150/81 
f 135/159/82 136/160/85 134/158/84 
f 126/150/81 137/161/82 124/148/79 
f 138/162/83 135/159/82 131/155/82 
f 138/162/83 136/160/85 135/159/82 
f 126/150/81 139/163/86 137/161/82 
f 136/160/85 139/163/86 126/150/81 
f 140/164/87 137/161/82 139/163/86 
f 140/164/87 141/165/88 137/161/82 
f 140/164/87 142/166/89 141/165/88 
f 143/167/89 142/166/89 140/164/87 
f 144/168/89 143/167/89 140/164/87 
f 145/169/90 140/164/87 139/163/86 
f 144/168/89 140/164/87 145/169/90 
f 145/169/90 139/163/86 136/160/85 
f 146/170/89 144/168/89 145/169/90 
f 147/171/89 146/170/89 145/169/90 
f 148/172/91 145/169/90 136/160/85 
f 148/172/91 147/171/89 145/169/90 
f 138/162/83 148/172/91 136/160/85 
f 148/172/91 149/173/89 147/171/89 
f 150/174/89 149/173/89 148/172/91 
f 138/162/83 150/174/89 148/172/91 
f 151/175/89 152/176/89 150/174/89 
f 138/162/83 151/175/89 150/174/89 
f 138/162/83 153/177/92 151/175/89 
f 151/175/89 153/177/92 154/178/93 
f 154/178/93 153/177/92 155/179/93 
f 138/162/83 156/180/92 153/177/92 
f 156/180/92 155/179/93 153/177/92 
f 157/181/92 158/182/93 155/179/93 
f 156/180/92 157/181/92 155/179/93 
f 156/180/92 132/156/83 157/181/92 
f 138/162/83 159/183/83 156/180/92 
f 159/183/83 132/156/83 156/180/92 
f 138/162/83 131/155/82 159/183/83 
f 159/183/83 131/155/82 132/156/83 
# 0 polygons - 122 triangles

